<?xml version="1.0" encoding="utf-8"?>
<!-- Generator: Adobe Illustrator 24.2.3, SVG Export Plug-In . SVG Version: 6.00 Build 0)  -->
<svg version="1.1" id="Layer_1" xmlns="http://www.w3.org/2000/svg" xmlns:xlink="http://www.w3.org/1999/xlink" x="0px" y="0px"
	 viewBox="0 0 200 200" style="enable-background:new 0 0 200 200;" xml:space="preserve">
<style type="text/css">
	.st0{fill:#ACD036;}
</style>
<g transform="rotate(0 0 3.620400000000018)">
	<g transform="matrix(1 0 0 1 0 0)">
		<g>
			<path class="st0" d="M181.8,29.1C181.8,29.1,181.8,29.2,181.8,29.1c-0.1,0.1-0.1,0.2-0.2,0.3c-0.1,0-0.2,0-0.2,0c0,0,0,0,0,0
				c0.3,0.2,1,0,1.3,0.1c0,0,0.1,0.1,0.1,0.1c0.2,0,0.4,0,0.6,0c0.1,0,0.1,0.2,0.2,0.2c0.1,0.1,0.4,0.1,0.5,0.2c0,0,0,0,0,0
				c0.1,0,0.3-0.1,0.5,0c0.3,0.1,0.6,0.2,0.8,0.3c0.4,0.1,0.8,0,1.2,0.2c0,0,0,0,0,0c-0.1,0-0.2,0-0.3,0c-0.1-0.1-0.3-0.1-0.4,0
				c0,0,0,0,0,0c0.3,0.2,0.7,0.2,0.9,0.5h0c0,0,0,0,0,0c-0.1,0.1-0.3,0.1-0.4,0.1c-0.2-0.2-0.6-0.3-0.9-0.4c-0.2,0-0.4,0-0.6,0
				c-0.1,0-0.1-0.1-0.1-0.2c-0.1-0.1-0.4-0.2-0.5-0.2c0,0,0,0.1,0,0.2c0,0,0,0,0.1,0.1c-0.1,0-0.1,0-0.2,0.1c0,0,0,0.1,0,0.1
				c0,0,0,0-0.1,0c-0.2-0.1-0.6-0.2-1-0.2c0,0.1-0.1,0.1-0.1,0.2c0.1,0,0.2,0.1,0.3,0.1c0,0,0,0,0,0c-0.1,0.1-0.7,0-0.8,0
				c0,0.1-0.1,0.2-0.2,0.3c0,0-0.1,0-0.1,0c0-0.3,0-0.3-0.3-0.3c0,0,0,0,0,0.1c0,0,0.1,0.1,0.1,0.1c-0.1,0.1-0.1,0.1-0.1,0.3
				c0.1,0,0.1,0,0.1,0.1c-0.1,0.1-0.1,0.2-0.1,0.3c0.1,0.1,0.1,0.2,0.4,0.3c0.3,0.2,0.5,0,0.9,0.1c0.1,0,0.3,0.1,0.4,0.1
				c0.2,0,0.3,0,0.5,0c0.5,0.1,1,0.3,1.5,0.4c0.3,0.1,0.8,0.1,0.9,0.4c-0.1,0.1-0.1,0.1-0.2,0.2c-0.2,0-0.2,0.1-0.4,0.1
				c-0.1-0.1-0.2-0.2-0.4-0.2c-0.2,0.3-0.5,0.3-0.9,0.3c0,0,0-0.1,0-0.1c0.1-0.1,0.1-0.2,0.1-0.3c-0.2,0-0.3,0-0.5,0
				c-0.1-0.2-0.2-0.3-0.5-0.3c-0.1-0.1-0.3,0-0.4-0.1c-0.4-0.1-1.1-0.3-1.6-0.2c0,0,0,0,0,0.1c0.2,0.1,0.3,0.2,0.5,0.2
				c0,0,0,0,0,0.1c-0.1,0-0.1,0-0.1,0c-0.1,0-0.2,0-0.3,0c0,0,0-0.1-0.1-0.1c-0.2,0-0.3,0-0.5,0c-0.3-0.1-0.6-0.2-0.9-0.2
				c0,0,0,0,0,0c0,0,0.1,0.1,0.1,0.1c-0.1,0-0.2,0-0.2,0c0,0,0,0-0.1,0c0-0.1,0-0.1-0.1-0.2c-0.1-0.1-0.3,0-0.5,0
				c-0.2-0.1-1.2-0.4-1.5-0.3c-0.1,0,0,0-0.1,0.1c0.1,0,0.2,0,0.2,0.1c-0.1,0-0.1,0.1-0.2,0.1c0.1,0,0.2,0,0.2,0.1c0,0,0,0-0.1,0.1
				c0.4,0,0.1,0.1,0.3,0.1c0.1,0,0.4-0.1,0.5,0c0.2,0.1,0,0.2,0.3,0.2c0.2-0.1,1,0.2,1.2,0.3c0.2,0,0.3-0.1,0.5-0.1
				c0.2,0.1,0.6,0.2,0.9,0.2c0.2,0,0.5-0.1,0.7,0c0.4,0.1,0.8,0.2,1.3,0.2c0,0,0,0,0,0c0-0.1,0-0.1,0-0.2c0.1-0.1,0.1-0.1,0.2-0.1
				c0.1,0.1,0.2,0.3,0.4,0.3c0,0,0,0,0,0c-0.1,0-0.1,0-0.2,0c-0.1-0.1-0.1-0.1-0.3-0.1c0,0.1,0,0.1-0.1,0.1h0
				c0.1,0.1,0.3,0.1,0.5,0.1c0,0.1,0.1,0.1,0.3,0.1c0,0,1.2,0.3,1.3,0.4c0,0.1,0,0.1,0,0.2c-0.1,0.1-0.1,0.1-0.1,0.2
				c-0.5-0.1-0.4,0.1-0.7,0.2c0-0.2-0.1-0.4-0.3-0.5c-0.4-0.3-1.2-0.2-1.7-0.4c-0.2-0.1-0.5,0.1-0.7,0c0,0-0.1-0.1-0.1-0.1
				c-0.1,0-0.3,0-0.4,0c0,0.2-0.1,0.1-0.3,0.1c-0.1-0.1-0.2-0.2-0.5-0.2c0,0.1-0.1,0.2-0.1,0.3c-0.1,0.2,0.1,0.4,0.1,0.5
				c0,0.1-0.2,0.5-0.2,0.5c0,0,0,0,0,0c0-0.1,0-0.2-0.1-0.3c-0.1,0.1-0.1,0.1-0.3,0.1c0,0,0,0,0,0c0-0.1,0-0.2,0-0.3
				c-0.1-0.1-0.1-0.3-0.3-0.3c-0.1-0.1-0.4-0.1-0.5-0.2c0,0,0-0.1,0-0.1c-0.1-0.1-0.2-0.1-0.4-0.1c-0.3-0.2-0.6,0.2-1.1,0.1
				c-0.7-0.2-1.6-0.3-2.3-0.3c0,0.1,0,0.1-0.1,0.1c0,0,0,0,0,0c0.3,0.2,0.9,0.1,1.4,0.2c0.2,0,0.5,0,0.7,0.1c0.1,0,0.2,0.1,0.3,0.2
				c0.2,0,0.4,0,0.6,0c0.2,0,0.4,0.2,0.6,0.2c0.2,0.1,0.4-0.1,0.6-0.1c0,0.1,0.1,0.1,0.1,0.3c-0.3,0-0.5-0.1-0.8,0
				c0,0.1,0,0.1,0,0.2c0.5,0.2,1.1,0.4,1.6,0.6c0,0,0,0,0,0c0,0-0.1,0-0.1,0c0,0-0.1,0-0.2,0c0,0,0,0,0,0c0,0.1,0,0.1,0,0.2
				c0,0,0,0,0,0c0.2-0.1,0.4,0,0.5,0.1c0.1,0,0.2-0.1,0.3-0.1c0,0.1,0,0.1,0,0.1c0.1,0.1,0.3,0.1,0.4,0.2c0.1,0.1,0.3,0.4,0.4,0.4
				c0.3,0.2,0.9,0.1,1.3,0.3c0.2,0.1,0.3,0.3,0.5,0.4c0.2,0.1,0.4,0,0.6,0.1c0,0,0,0.1,0.1,0.1c0.1,0,0.3,0.1,0.4,0.1
				c0.2,0.1,0.6,0.4,0.7,0.7c-0.1,0-0.2,0.1-0.2,0.2c0,0.1,0,0.1,0,0.2c0,0.4,0.2,0.2,0.5,0.4c0.1,0,0.1,0.2,0.2,0.3
				c0,0,0,0.1,0,0.1c-0.4,0-0.7,0-0.9,0c0,0.1,0,0.1-0.1,0.2c-0.1-0.1-0.4-0.1-0.6-0.1c0,0,0-0.1,0-0.1c0,0-0.1,0-0.1,0
				c-0.3-0.2-0.7,0-1.1-0.1c-0.5-0.1-1-0.2-1.5-0.2c0,0,0,0.1,0,0.1c0.1,0.1,0.1,0.2,0.2,0.3c0.3,0.2,0.7,0.2,1.1,0.3c0,0,0,0,0,0
				c-0.1,0-0.3,0-0.4,0c-0.1,0-0.2-0.1-0.3-0.1c-0.1,0.2-0.4,0.2-0.4,0.4c0,0,0,0,0,0c0.2,0.1,0.5,0.2,0.7,0.3c0.1,0,0.1,0,0.3,0
				c0.2,0.1,0.4,0.3,0.6,0.3c0,0,0,0.1,0,0.1c0,0,0,0,0,0c-0.1,0-0.2,0-0.3,0c0,0,0,0.1,0,0.1c0.2,0.1,0.3,0.3,0.5,0.4
				c0.1,0,0.2,0,0.2,0c0.5,0.2,1.3,0.2,1.8,0.3c0,0.1,0,0.1,0,0.2c0,0,0,0,0,0.1c-0.1,0,0,0-0.1,0c-0.5-0.1-1.3-0.2-1.7,0.1
				c-0.1,0-0.1,0.2-0.2,0.2c0-0.1,0.1-0.2-0.1-0.2c-0.2-0.1-0.7,0-1,0c0,0,0-0.1,0-0.1h-0.1c-0.1,0.1-0.1,0.2-0.2,0.4
				c-0.1,0.1-0.2,0.1-0.3,0.1c0,0-0.1,0.2-0.1,0.3c0,0,0,0-0.1,0c0-0.2,0-0.2-0.1-0.3c-0.2-0.2-0.7-0.1-1-0.1c0,0.1,0,0.1-0.1,0.1
				c0.1,0,0.2,0,0.2,0c0,0.1,0,0.1,0,0.1c0.1,0,0.3,0,0.3,0c0,0,0.2,0.1,0.3,0.2c0.1,0,0.2,0,0.3,0c0,0,0,0,0.1-0.1
				c0,0,0.1,0.1,0.1,0.1c0.1,0.1,0.3,0,0.5,0.1c0,0,0,0,0,0.1c-0.1,0-0.1,0-0.2,0c-0.1-0.1-0.7-0.1-0.8-0.1c0,0.1-0.1,0.1-0.1,0.2
				c0,0,0,0.1,0,0.1c0.4,0.2,1.5,0.2,1.6,0.9c-0.1,0-0.1,0.1-0.3,0.1c-0.1-0.1-0.4,0-0.6,0c0,0,0,0.1-0.1,0.1c0,0.1,0,0,0,0.1
				c0.1,0.1,0.3,0.2,0.5,0.3c0.2-0.1,0.4,0,0.6,0c0.3,0,0.7,0.1,1,0.1c0.1,0,0.3,0,0.4,0c0.1,0,0.1,0.1,0.3,0.1c0.2,0,0.7,0.1,1,0.1
				c0.2,0,0.3,0,0.5,0c0.1,0,0.1,0.1,0.3,0.1c0,0,0.1-0.1,0.2-0.1c0.2,0,0.3,0.1,0.4,0.2c0.1,0,0.2,0,0.3,0c0,0.1,0.1,0.1,0.2,0.2
				c0.1,0,0.2,0,0.3,0c0.4,0.1,0.7,0.1,1.1,0.3c0.2,0,0.4,0,0.7,0c0.5,0.1,1,0.1,1.5,0.3c0.1,0,0.2,0,0.4,0c0.3,0.1,0.2,0.5,0.4,0.6
				c0.2,0.1,0.4,0,0.7,0.1c0.4,0.1,0.9,0.2,1.4,0.2c0,0.1,0.1,0.1,0.1,0.2c-0.1,0-0.1,0,0,0.1c0.2,0.1,0.6,0.1,0.9,0.2
				c0.3,0.1,0.4,0.3,0.7,0.4c0.3-0.2,1.1,0,1.4,0.1c0.1,0,0.3,0,0.4,0c0,0,0.1,0.1,0.2,0.2c0.2,0.1,0.5,0,0.7,0.1
				c-0.1,0.1-0.2,0.1-0.2,0.2c0,0.1,0,0.1,0,0.2c0,0.1-0.1,0-0.2,0.1c0,0.1,0,0.1,0,0.2c0,0.1-0.1,0.3-0.2,0.4
				c-0.3,0.2-1.4-0.2-1.5,0.3c0,0,0.1,0.2,0.1,0.4c-0.1,0-0.2,0-0.4,0.1c0,0-0.1,0.1-0.1,0.2c-0.2,0.1-0.5,0-0.6,0.2
				c0,0,0,0.1,0,0.2c0,0,0,0,0.1,0c0.2,0.1,1.4,0.1,1.9,0.2c0.1,0,0.3-0.1,0.4,0c0,0,0,0,0,0.1c-0.1,0-0.1,0-0.1,0.1
				c0,0.1,0,0.1,0.1,0.2c0.3,0.2,1.2,0.1,1.3,0.4h0c-0.1,0.1-0.3,0-0.5,0c0,0-0.1,0.1-0.1,0.1c0,0.1,0,0.2-0.1,0.3
				c-0.1,0.2-0.3,0.1-0.4,0.3c0.1,0.1,0.1,0.3,0.2,0.4c0.2,0.2,0.8,0.4,0.9,0.6c-0.1,0.1-0.1,0.2-0.2,0.3c-0.1,0.1-0.3,0-0.4,0.2
				c-0.1,0.2,0,0.4,0,0.6h-0.1c-0.2,0.1-0.5,0-0.6,0c-0.2-0.1-0.5,0-0.7,0.1c-0.1,0.2-0.2,0.3-0.2,0.7c0.1,0.1,0.3,0.1,0.4,0.2
				c0,0,0,0.1,0,0.1c0.2,0.1,0.9-0.1,1.1,0.2h0c0,0,0,0,0,0c-0.1,0.1-0.3,0.1-0.3,0.4c0.2,0.1,0.3,0.2,0.3,0.5
				c-0.2,0.2-0.3,0.4-0.4,0.6c-0.2,0.2-0.5,0.3-0.4,0.8c0,0.1,0,0.2,0,0.3c0.1,0.1,0.1,0.1,0.2,0.3c-0.1,0.1-0.6,0.9-0.7,1.1
				c0.1,0.1,0,0.2,0.1,0.3c0.1,0.2,0.3,0.4,0.4,0.7c-0.5,0-0.9,0.2-1.1,0.5c0,0.1-0.1,0.3-0.1,0.4c-0.2,0.1-0.4,0.2-0.5,0.4
				c-0.1,0.1-0.2,0.3-0.3,0.3c-0.1,0-0.2,0-0.3,0c0,0,0,0-0.1,0.1c0,0.1,0,0.1,0.1,0.2c0.2,0.1,0.4,0.2,0.4,0.5c0,0.1,0,0.1-0.1,0.2
				c-0.2,0.1-0.5,0.1-0.7,0c-0.3-0.1-0.5,0.1-0.9,0c-0.2,0-0.7-0.1-1.1,0c-0.3,0.1-0.8,0-1,0c-0.2,0-0.3,0-0.5,0.1
				c-0.3,0-0.9-0.1-1.3,0c-0.1,0-0.2,0.1-0.3,0.2c-0.1,0-0.3,0-0.4,0c-0.6,0.2-1.3,0.1-1.7,0.3c0,0.1,0,0.1,0.1,0.2c0,0,0,0-0.1,0.1
				c0,0,0,0,0,0c0,0,0-0.1,0-0.1c-0.1,0-0.2,0-0.3,0c0,0,0-0.1,0-0.1c-0.2,0-0.5,0-0.6,0.1c-0.1,0.1-0.1,0.2-0.2,0.3
				c-0.3,0.2-0.7,0-1,0.3c0.1,0,0,0,0.1,0.1c-0.3,0-0.6,0.1-0.9,0.2c0,0,0,0,0,0.1c0.1,0,0.2,0.1,0.3,0.1c0.1,0,0.2-0.1,0.2-0.1
				c0.2,0,0.4,0,0.6,0c0.1,0,0.4-0.2,0.5-0.3c0.2-0.1,0.3,0,0.5-0.1c0.1-0.1,0.1-0.1,0.2-0.2c0.1,0,0.2,0,0.3,0
				c0.3-0.1,0.3,0,0.6,0.1c0.2,0.1,0.3-0.1,0.4,0.1H189c0,0,0,0,0,0.1c0,0,0,0,0,0c0.2,0.2,1.4,0.5,1.8,0.4c0-0.1,0.1-0.2,0.1-0.3
				c0.1-0.1,0.1-0.1,0.2-0.1c0,0.1,0.6,0.7,0.7,0.7c0.1,0,0.1-0.1,0.3,0c-0.1,0.1-0.1,0.1-0.1,0.1c0,0.1,0.1,0.1,0.1,0.2
				c0,0.1-0.1,0.2-0.1,0.3c0,0.2,0.2,0.8,0.3,0.8c0.1,0.1,0.2,0,0.3,0.1c0,0,0,0.3,0,0.4c-0.2,0.2-0.1,0.3-0.5,0.3
				c-0.1-0.1-0.2-0.1-0.4-0.1c0,0.1,0,0.1-0.1,0.1c0.1,0,0.2,0.1,0.2,0.1c0,0,0,0,0,0c-0.1,0.1-0.2,0.1-0.4,0.1c0-0.1,0-0.2-0.1-0.2
				c-0.1,0-0.3,0.1-0.5,0.1c0,0,0,0.1,0,0.1c0.1,0.1,0.1,0.3,0.3,0.4c0,0,0.1,0,0.2,0c0.3,0.1,0.6,0.2,0.9,0.3
				c0.2,0,0.3-0.1,0.4-0.1c0,0,0,0.1,0,0.2c-0.1,0.1-0.1,0.1-0.2,0.3c-0.1,0.1-0.2,0.1-0.3,0.1c-0.2,0.1-0.2,0.3-0.5,0.3
				c-0.2-0.2-0.5-0.1-0.9-0.1c0,0,0-0.1,0-0.1c0,0,0,0,0-0.1c-0.2,0-0.3-0.1-0.4-0.2c-0.4-0.1-0.8,0.1-1.1,0.2c-0.1,0-0.2,0-0.3,0
				c-0.2,0.1-0.6,0.2-0.8,0.3c0,0,0,0.1,0,0.1c-0.5,0-1,0.3-1.6,0.4c-0.1-0.1-0.1-0.1-0.2-0.1c-0.3,0.3-0.7,0.1-1.2,0.2
				c-0.1,0-0.6,0.2-0.8,0.1c-0.1,0-0.2-0.2-0.3-0.3c-0.1,0-0.7-0.1-0.8-0.1c-0.2,0.1-0.5,0.2-0.7,0.3c-0.1,0-0.2,0.2-0.2,0.2
				c-0.4,0.1-1,0.1-1.4,0.2c-0.2,0.1-0.3,0.2-0.5,0.3c0,0,0,0.1,0,0.1c0.4,0,0.7-0.1,1-0.1c0,0,0,0,0,0.1c0,0-0.2,0-0.1,0.1
				c0.1,0.1,0.1,0.1,0.2,0.1c-0.4,0-0.9,0.3-1.2,0.4c-0.3,0.1-0.6,0-0.9,0.2c-0.2,0.1-0.3,0.3-0.4,0.4c-0.1,0.1-0.2,0-0.4,0.1
				c-0.1,0-0.2,0.2-0.3,0.2c-0.2,0-0.4,0-0.6,0c0,0.1,0,0.1-0.1,0.2c-0.2-0.1-1.1,0.1-1.3,0.3h0c0,0,0,0,0,0
				c0.1,0.1,0.1,0.1,0.2,0.1c0,0.1,0,0,0,0.1c-0.1,0-0.1,0-0.2,0.1h0.1c0,0,0,0,0.1,0c0,0.1,0,0.1,0.1,0.1c0,0.1,0,0-0.1,0.2h0.1
				c0,0,0,0.1,0,0.1c-0.1,0-0.2,0-0.3,0.1c-0.2-0.1-0.3-0.3-0.6-0.3c-0.2,0-0.4,0.1-0.6,0.2c-0.2,0-0.5,0-0.8,0c0,0,0,0,0,0.1
				c0,0,0,0,0,0c0.1,0,0.1,0,0.2,0.1c-0.3,0.1-0.3,0.5-0.4,0.6c-0.2,0-0.3,0-0.5,0c0-0.1-0.4-0.2-0.6-0.1c0,0-0.1,0.1-0.2,0.1
				c-0.2,0-0.3,0-0.5,0c-0.1,0.1-0.3,0.2-0.5,0.3c-0.1,0-0.2-0.1-0.2-0.1c0,0-0.3,0-0.4,0c0,0.1-0.1,0.1-0.2,0.2
				c0-0.2,0-0.3-0.3-0.3c-0.2,0.2-0.4,0.3-0.6,0.4c-0.1,0-0.1,0-0.2,0c-0.1,0.1,0,0.2-0.2,0.2c-0.1-0.2-0.4,0-0.6,0c0,0-0.4,0-0.5,0
				c-0.1,0-0.2,0.1-0.2,0.1c-0.1,0-0.2-0.1-0.3,0c-0.1,0.1-0.3,0.2-0.4,0.3c-0.2,0.1-0.4,0.1-0.5,0.2c-0.4-0.3-1.1,0.1-1.5,0.3
				c-0.2,0-0.3,0.1-0.5,0.1c-0.1,0.1-0.1,0.1-0.2,0.2c-0.1,0-0.1-0.1-0.2-0.1c0,0-0.2,0.1-0.3,0.1c-0.1,0-0.3,0-0.4,0
				c-0.1,0-0.2,0.2-0.3,0.2c0,0-0.1-0.1-0.1-0.1c-0.1,0-0.5,0-0.6,0c0,0.1-0.1,0.2-0.1,0.3c0,0,0,0,0,0c0.1,0,0.1,0,0.1,0
				c0.1-0.1,0.5-0.1,0.6-0.2c0.1,0,0.3,0,0.4,0c0.1,0,0.2-0.1,0.3-0.2c0.2-0.1,0.5,0,0.6,0c0,0,0,0,0,0c-0.1,0.1-0.1,0.1-0.1,0.3
				h0.1c0,0,0,0,0,0c0,0,0,0,0,0.1h-0.1c-0.1-0.1-0.2,0-0.3,0c0,0-0.1-0.1-0.2-0.1c0,0,0,0,0,0c0,0.1-0.1,0.3-0.1,0.5
				c0.1,0,0.1,0,0.1,0.1c0.1-0.1,0.3-0.1,0.5-0.1c0,0,0,0,0,0h-0.1c-0.2,0.2-0.2,0-0.4,0.4c-0.2,0-0.3,0.1-0.4,0c0,0,0-0.1-0.1-0.1
				c-0.1,0-0.2,0.2-0.4,0.1c0,0,0,0,0-0.1c0,0,0.1-0.6,0.1-0.6c0-0.1,0,0-0.1-0.1c-0.1,0.1-0.5,0.1-0.8,0.1c0-0.1-0.1-0.1-0.1-0.3
				c0.1,0,0.1,0,0.1-0.1c0,0,0,0,0,0c-0.1-0.1-0.7,0-0.7,0.1c0.2,0,0.2,0.1,0.3,0.2c0.1,0,0.2,0.1,0.4,0.1c0,0,0,0,0,0.1
				c-0.1,0.1-0.1,0.3-0.3,0.4c-0.3-0.2-0.4,0.2-0.8,0c0,0-0.1-0.1-0.1-0.1c-0.2-0.1-0.6-0.1-0.8-0.1c0,0.1-0.1,0.2-0.2,0.2
				c-0.2,0.2-0.5-0.1-0.7-0.1c0,0,0,0.1,0,0.1c0,0,0,0.1,0,0.2c0,0.1,0,0.1-0.2,0.1c-0.2,0.1-0.7-0.1-0.9,0.1
				c-0.1,0.1-0.1,0.1-0.1,0.3c0,0,0,0,0,0c0.2,0,0.5,0,0.7,0.1c0,0,0.1,0.1,0.1,0.1c0.1,0,0.2,0,0.3,0c0,0,0,0-0.1,0
				c-0.1,0-0.2,0-0.3,0c0,0,0,0,0,0.1c0.1,0,0.1,0,0.2,0c0,0,0,0,0,0.1c-0.1,0-0.3,0-0.4,0c-0.1-0.1-0.3-0.1-0.5-0.1
				c0,0-0.1,0.1-0.1,0.1c-0.2,0.1,0-0.2-0.3,0c0,0,0,0,0,0c0-0.1,0,0,0-0.1c-0.4,0-1.7,0-1.9,0.3h0c0,0,0,0,0,0
				c0.4,0.3,1.1,0,1.6,0.2c0.4,0.1,0.9,0,1.4,0.1c0.2,0,0.7,0.1,1,0.2c0.1,0,0.3,0,0.4,0c0.1,0,0.5,0.2,0.6,0.2
				c0.1,0,0.1-0.1,0.2-0.2c0.1,0,0.1,0,0.2,0c0.3-0.1,0.5-0.1,0.8-0.3c0,0,0,0,0,0c0,0-0.1,0-0.1,0c-0.1-0.1-0.3,0-0.4-0.1
				c-0.3-0.1-1-0.2-1.4-0.3c-0.3-0.1-0.6,0.1-0.8-0.1c0,0,0,0,0,0c0.1,0,0.2,0,0.3,0c0.1,0.1,0.6,0.1,0.8,0.1c0,0,0.1-0.1,0.2-0.1
				c0.2,0,0.3,0.1,0.5,0.1c0.1,0,0.2-0.1,0.3-0.1c0.1,0,0.1,0.1,0.2,0.1c0.3-0.1,0.5,0.1,0.9,0.1c0,0,0,0.1,0,0.1h0.1
				c0-0.1,0-0.1,0-0.1c0,0,0,0,0.1,0c0,0,0,0,0.1,0c0,0,0,0.1,0,0.1c0.1,0,0.1,0,0.2,0c0.1-0.1,0.3-0.2,0.4-0.2c0.1,0,0.1,0,0.2,0
				c0.2,0,0.6-0.2,0.8-0.3c0.2-0.1,0.9,0,1.1,0.1c0.1-0.2,0.3-0.3,0.6-0.3c0,0,0.1,0,0.1,0c0,0,0.1,0.1,0.1,0.1
				c-0.1,0.1-0.2,0.1-0.2,0.1c0.1,0,0.2,0,0.3,0c0-0.1,0,0,0.1-0.1c0,0,0,0,0-0.1c0.1,0,0.3-0.1,0.3-0.1c0.1,0,0.2,0.1,0.3,0.1
				c0.1,0,0.2-0.1,0.3-0.1c0,0,0-0.1,0-0.1c0,0-0.1,0-0.2,0c0,0,0,0,0-0.1c0.1,0,0.2,0,0.3,0c0,0,0,0,0.1,0c0,0,0.1,0.1,0.1,0.1
				c0.1-0.1,0.2,0,0.3,0c0-0.1,0-0.1,0.2-0.1c0.1,0.1,0.2,0,0.3,0.1H169c-0.1,0.1-0.2,0.1-0.3,0.2c0.3,0.2,0.7,0.3,1.2,0.4
				c0,0.1,0,0.1,0.1,0.1c0,0,0,0,0,0c0,0-0.1,0-0.2,0c-0.1,0-0.2-0.1-0.3-0.1c-0.3-0.1-0.8,0-1,0c-0.2,0.1-0.3,0.1-0.5,0.2
				c0,0,0,0.1,0,0.1c-0.1,0-0.2,0-0.3,0c-0.2,0.1-1,0.2-1.1,0.4c0,0,0,0,0,0c0,0,0,0,0,0c0.2,0.2,1.3,0.3,1.7,0.3c0,0.2,0,0.1,0,0.2
				c0,0-0.1,0-0.1,0c-0.2-0.1-0.4,0-0.7-0.1c-0.3-0.1-0.8-0.2-1.1-0.3c-0.2,0-0.4,0.1-0.5,0.1c-0.1,0-0.2,0-0.3,0
				c-0.1,0-0.2,0.1-0.2,0.1c-0.3,0.1-0.5,0-0.7,0.2c0,0,0,0,0,0c0.2,0.2,0.5,0.1,0.8,0.2c0.5,0.1,1.2,0.4,1.9,0.4
				c0.1-0.1,0.3,0.1,0.4,0.2c0.1,0,0.1-0.1,0.1-0.1c0.1,0,0.2,0.1,0.3,0.1c0.1,0,0.3,0,0.5,0c0.2,0.1,0.6,0.3,0.9,0.2
				c0.3-0.1,0.5,0.1,0.8,0.1c0.5,0,1,0.1,1.4,0.2c0.3,0,0.6,0,1,0c0.7,0.2,1.8,0.2,2.4,0.1c0.2,0,0.4,0.1,0.8,0.1c0,0,0-0.1,0-0.1
				c0.3,0,0.6,0,0.9,0c0,0,0.1,0.1,0.1,0.1c0.1,0,0.2,0,0.3-0.1c0.1,0,0.3,0,0.4,0.1c0.1,0,0.2,0,0.4,0c0.2,0,0.9,0.1,1.2,0.1
				c0.1,0,0.2-0.1,0.4-0.1c0.1,0,0.3,0.1,0.5,0.2c0.2,0,0.3,0,0.5-0.1c0.5,0.1,1.1,0,1.6,0.1c0.1,0,0.3,0,0.4,0
				c0.2,0.1,0.5,0.1,0.8,0.1c0.2,0,0.4,0,0.6,0c0.3,0.1,0.5,0.2,0.7,0.2c0.3-0.1,0.6,0.1,0.9,0.1c0.4-0.1,0.9-0.1,1.4,0.1
				c0.3,0.1,0.9,0,1-0.1c-0.1,0-0.1,0-0.1-0.2c0,0,0.1,0,0.1,0c0.1,0.2,0,0.1,0.2,0.3c0.1,0,0,0,0.1,0c0,0,0,0,0-0.1
				c-0.1-0.2-0.2-0.4-0.2-0.7h0c0.1,0.2,0.3,0.2,0.6,0.3c0.2,0.1,0.3,0.3,0.5,0.4c0,0,0.1,0,0.1,0c0.1,0,0.2,0.1,0.2,0.2
				c0.1,0,0.3,0,0.4,0.1c0.1,0.1,0.1,0.2,0.2,0.2c0.2,0.1,0.5,0.1,0.6,0.3c0,0,0,0,0,0c0,0,0,0,0,0c0,0.1,0,0.1-0.1,0.1c0,0,0,0,0,0
				c-0.1-0.1-0.7-0.4-1-0.4c-0.1,0-0.1,0.1-0.3,0.2c0-0.1-0.1-0.1-0.1-0.2c-0.1,0-0.4-0.1-0.7-0.1c0,0,0,0,0,0
				c0.4,0.4,0.9,0.9,1.4,1.3c0.3,0.2,0.7,0.4,0.9,0.7c0.1,0.2,0,0.6,0.2,0.8c0.2,0.3,0.6,0.2,0.6,0.6c-0.1,0-0.1,0.1-0.2,0.1
				c-0.4,0-0.9-0.1-1.3,0.1c-0.1,0.1-0.1,0.2-0.2,0.2c0,0-0.1,0-0.2,0.1c0,0.1,0,0.2,0,0.3c0,0.1-0.2,0.1-0.3,0.2
				c-0.2,0.2,0,0.4-0.3,0.4c-0.1,0-0.3,0-0.4,0c0,0.1,0,0,0,0.1c0.1,0.2,0.3,0.3,0.4,0.6c-0.1,0.1-0.1,0.2-0.2,0.4
				c0.1,0.1,0.2,0.3,0.4,0.4c0.1,0,0.2,0,0.3,0c0.1,0,0.5,0.3,0.5,0.3c0,0,0,0.1,0,0.2c-0.1,0.1-0.4,0.3-0.3,0.4
				c0.1,0.2,0.4,0.3,0.6,0.4c0.3,0.2,0.6,0.4,0.8,0.6c0.3,0.2,0.6,0.2,0.8,0.4c0.1,0.1-0.1,0.7-0.1,1c0.2,0.1,0.5,0.2,0.6,0.5
				c-0.2,0.2,0,0.1-0.1,0.3c0,0.1-0.2,0.1-0.3,0.2c0,0,0,0,0,0c0.2-0.1,0.4-0.2,0.6-0.2c0,0,0,0.1,0,0.1c-0.3,0.1-0.5,0.4-0.8,0.5
				c0,0-0.1,0-0.2,0c0,0-0.1,0.1-0.1,0.1c-0.1,0.1-0.3,0-0.4,0.1c0,0-0.1,0.1-0.1,0.1c-0.1,0-0.1,0-0.2,0.1
				c-0.2,0.2-0.3,0.4-0.6,0.3c-0.1,0-0.2,0-0.3,0.1c-0.1,0-0.2,0-0.3,0c-0.1,0.1-0.2,0.2-0.2,0.2c-0.1,0-0.1,0-0.2,0
				c-0.1,0.1-0.1,0.2-0.2,0.2c0,0-0.1,0-0.2,0.1c0,0.1,0,0.2,0,0.3c0.3,0.2,0.3,0.7,0.5,1.1c0.1,0.1,0.2,0.3,0.3,0.4
				c0,0,0.1,0,0.1,0.1c0,0.1,0,0.1,0.1,0.2c0.1,0.1,0.4,0.3,0.4,0.4c0,0.1,0,0.2,0,0.3c0,0,0,0,0,0.1c-0.5,0-0.5,0.1-0.9,0.2
				c-0.3,0.1-0.8,0-1.1,0c0,0,0,0,0,0c0,0.1,0,0.2,0,0.4c0.1,0.1,0.1,0.2,0.2,0.3c0.3,0.2,0.6,0.3,0.9,0.5c0,0,0,0,0,0
				c-0.1,0-0.3,0.1-0.4,0.2c0,0.1-0.1,0.1-0.1,0.2c-0.1,0.1-0.3-0.1-0.5,0c0,0-0.1,0.1-0.1,0.1c-0.1,0-0.2,0-0.4,0
				c-0.2,0.1-0.4,0.3-0.6,0.5c0,0,0,0,0,0.1c0.1,0,0.1,0.1,0.2,0.1c0,0,0,0,0,0c-0.2,0.2-1,0.4-1.4,0.5c-0.1,0.1-0.3,0.2-0.5,0.3
				c-0.3,0.1-0.6,0.1-0.9,0.2c-0.1,0-0.1,0.1-0.2,0.1c-0.4,0.1-1.1-0.1-1.2,0.4c-0.2,0-0.2-0.1-0.4-0.1c-0.1,0-0.2,0.1-0.2,0.1
				c-0.4,0.1-0.7,0.1-1.1,0.3c-0.1,0-0.2,0.2-0.3,0.2c-0.1,0-0.1,0-0.1,0c-0.3,0.1-0.3,0.3-0.6,0.3c0-0.1,0,0-0.1-0.1
				c-0.2,0.1-0.4,0-0.6,0.2c-0.1,0.1-0.1,0.3-0.3,0.3c0,0,0-0.1,0-0.1c0-0.1,0-0.1,0-0.2c0.1-0.1,0.2-0.2,0.4-0.2c0.1,0,0.2,0,0.2,0
				c0.2-0.1,0.5-0.2,0.7-0.3c0.1-0.1,0.3,0,0.4-0.1c0.4-0.2,1-0.5,1.4-0.6c0,0,0,0,0,0c-0.3,0-0.5-0.1-0.7,0c-0.1,0-0.1,0.1-0.2,0.1
				c-0.3,0.1-0.5,0-0.7,0.1c-0.2,0.1-0.5,0.2-0.7,0.3c-0.1,0-0.1,0-0.1,0c-0.2,0-0.4,0.2-0.6,0.3c-0.2,0.1-0.4,0.1-0.6,0.1
				c-0.1,0-0.2,0.2-0.3,0.2c-0.2,0.1-0.4,0-0.6,0c-0.2,0-0.3,0.2-0.5,0.2c0,0,0,0.1,0,0.1c-0.4,0.3-0.8,0.2-1.3,0.3c0,0,0,0,0,0
				c0.1,0,0.1,0,0.2,0c0,0,0,0,0,0c-0.1,0.1-0.5,0.2-0.7,0.3c0,0,0,0,0,0h0c0.1-0.1,0.3-0.2,0.4-0.2c0,0,0,0,0,0
				c-0.5,0-0.8,0.3-1.1,0.4c-0.4,0.1-0.7,0.2-1.1,0.3c-0.3,0.1-0.5,0.3-0.9,0.3c-0.1-0.1-0.1-0.1-0.3-0.1c-0.1,0.1-0.3,0.2-0.4,0.2
				c-0.1,0-0.2,0-0.3,0c-0.1,0.1-0.1,0.1-0.2,0.2c-0.2,0.1-0.4,0.1-0.6,0.2c0,0,0,0,0,0.1c0.1,0,0.1,0,0.1,0c-0.3,0-0.4,0-0.7,0.1
				c-0.1,0-0.3,0-0.4,0c-0.2,0.1-0.4,0.3-0.6,0.4c-0.1,0-0.2,0-0.2,0c-0.1,0-0.2,0.1-0.3,0.2c-0.1,0-0.2,0-0.3,0
				c-0.1,0-0.2,0.2-0.3,0.3c-0.2,0-0.3,0-0.5,0c-0.2,0.1-0.5,0.3-0.7,0.4c-0.1,0-0.3,0-0.4,0c0,0,0,0.1,0,0.1
				c-0.1,0.1-0.3,0.1-0.5,0.2c-0.3,0.2-0.7,0.4-1,0.6c-0.3,0.1-0.4,0.1-0.7,0.2c-0.1,0-0.3,0.2-0.4,0.2c-0.1,0.1-0.1,0-0.2,0
				c0,0-0.1,0.1-0.1,0.1c-0.1,0-0.2,0-0.4,0c-0.4,0.2-0.9,0.3-1.3,0.5c-0.2,0-0.3,0-0.5,0.1c-0.1,0-0.2,0.1-0.3,0.1
				c0,0-0.1,0.1-0.1,0.1c-0.1,0.1-0.2,0-0.4,0c-0.1,0-0.3,0.2-0.4,0.2c-0.1,0-0.1,0-0.2,0c-0.1,0-0.1,0.1-0.2,0.1
				c-0.1,0.1-0.3,0-0.4,0.1c0,0-0.1,0.1-0.2,0.1c-0.1,0-0.2,0-0.3,0c-0.3,0.1-0.7,0.2-1,0.3c-0.2,0-0.3,0-0.5,0.1
				c-0.6,0.3-1.3,0.5-2,0.8c-0.1,0-0.2,0-0.3,0c-0.1,0-0.2,0.1-0.2,0.2c-0.3,0.1-0.6,0.1-0.9,0.2c-0.4,0.1-0.7,0.4-1.1,0.5
				c-0.1,0-0.3,0-0.4,0c-0.1,0-0.2,0.1-0.3,0.2c-0.1,0-0.2,0-0.3,0c-0.1,0-0.2,0.2-0.3,0.2c-0.4,0.1-0.8,0.2-1.2,0.3
				c-0.1,0-0.3,0.2-0.4,0.2c-0.1,0-0.2,0-0.3,0c-0.1,0-0.1,0.1-0.2,0.1c-0.2,0-0.4,0-0.5,0c-0.2,0-0.4,0.2-0.5,0.3
				c-0.2,0.1-0.4,0-0.6,0.1c-0.2,0.1-0.3,0.2-0.5,0.3c-0.2,0.1-0.3,0-0.6,0.1c-0.3,0.1-0.7,0.3-1,0.4c-0.1,0-0.2,0-0.4,0.1
				c-0.4,0.1-0.8,0.3-1.2,0.5c-0.1,0-0.2,0-0.3,0c0,0.1-0.1,0.1-0.2,0.2c-0.1,0-0.2,0-0.3,0c0,0-0.1,0.1-0.1,0.1
				c-0.2,0.1-0.3,0.1-0.5,0.2c0,0,0,0.1-0.1,0.1c-0.1,0-0.2,0-0.3,0c-0.2,0.1-0.4,0.2-0.6,0.3c-0.3,0.1-0.5,0.1-0.7,0.2
				c-0.1,0-0.1,0-0.1,0c-0.1,0-0.1,0.1-0.2,0.1c-0.2,0.1-0.5,0.1-0.8,0.2c-0.4,0.1-0.7,0.2-1.1,0.4c-0.1,0-0.2,0.1-0.3,0.2
				c-0.1,0-0.1,0-0.2,0c-0.1,0-0.2,0.1-0.2,0.1c-0.2,0.1-0.4,0.1-0.6,0.2c-0.2,0.1-0.5,0.4-0.7,0.5c-0.1,0-0.3,0-0.4,0.1
				c-0.2,0.1-0.5,0.3-0.8,0.4c-0.2,0-0.3,0.1-0.5,0.1c-0.1,0-0.3,0.2-0.4,0.2c-0.1,0-0.1,0-0.2,0c0,0,0,0.1-0.1,0.1
				c-0.2,0-0.3,0-0.5,0.1c-0.1,0-0.1,0.1-0.2,0.1c-0.1,0-0.2,0-0.3,0c-0.1,0.1-0.4,0.2-0.5,0.3c-0.1,0-0.2,0-0.3,0
				c-0.1,0.1-0.3,0.2-0.5,0.3c-0.2,0.1-0.4,0.1-0.6,0.1c-0.1,0-0.2,0.2-0.3,0.2c-0.1,0-0.2,0-0.3,0c-0.1,0.1-0.3,0.2-0.4,0.3
				c-0.2,0.1-0.4,0.1-0.6,0.2c-0.4,0.2-0.9,0.3-1.3,0.5c-1.1,0.4-2.3,0.9-3.4,1.4c-0.2,0.1-0.3,0-0.5,0.1c-0.3,0.1-0.7,0.4-1,0.5
				c-0.2,0.1-0.3,0-0.5,0.1c-0.1,0.1-0.2,0.2-0.2,0.2c-0.3,0.1-0.7,0.2-0.9,0.3c-0.4,0.3-0.6,0.8-1.2,1c0,0,0-0.1,0-0.1
				c-0.5,0.1-0.7,0.3-1.1,0.5c0,0.1,0,0.1,0,0.1c0,0,0,0-0.1,0c-0.1-0.2-0.6,0-0.8,0.1c0,0.1,0,0.1-0.1,0.2c-0.1,0-0.2,0-0.3,0
				c-0.1,0,0,0-0.1,0c-0.1,0-0.1,0-0.1,0.1c0,0,0.1,0,0.1,0c0,0,0,0,0,0c-0.2,0.1-0.4,0-0.6,0.2c0.1,0,0,0,0,0.1
				c-0.1,0-0.1-0.1-0.2,0c-0.1,0-0.2,0.1-0.3,0.1c-0.1,0-0.1,0-0.2,0c-0.2,0.1-0.4,0.3-0.6,0.4c-0.4,0.1-0.7,0.2-1,0.4
				c0,0.1,0.1,0.1,0,0.1c-0.2,0.3-0.6,0.1-0.9,0.3c-0.1,0.1-0.1,0.2-0.3,0.2c0-0.1,0-0.1,0-0.1c-0.1,0.1-0.8,0.5-1.1,0.6
				c0-0.1,0-0.1-0.1-0.1c-0.1,0.1-0.3,0.2-0.5,0.2c0,0.1,0,0.2-0.1,0.2c-0.2,0.1-0.6-0.1-0.7,0.2c0,0,0.1,0,0.1,0h0
				c0,0-0.1,0.1-0.1,0.1c0,0-0.1,0-0.1,0c0,0,0,0,0-0.1c0,0,0,0,0,0c-0.1,0.1-0.2,0-0.3,0.1c-0.3,0.1,0,0.3-0.6,0.3c0,0,0,0.1,0,0.1
				c0,0-0.1,0-0.1,0c0-0.1,0-0.1-0.1-0.1c0,0,0,0-0.1,0c0,0.1-0.1,0.2-0.1,0.2c-0.1,0-0.1,0-0.2,0c0,0,0,0.1-0.1,0.1
				c0.1,0,0.2,0,0.3,0c0.3-0.2,0.7-0.1,1.1-0.2c0.3-0.1,0.8-0.2,1.1-0.3c0.2,0,0.4,0,0.6,0c0.2-0.1,0.5-0.1,0.8-0.1
				c0.1,0,0.3-0.2,0.4-0.2c0.2-0.1,0.3,0.1,0.5,0c0.1,0,0.2-0.2,0.3-0.2c0.1,0,0.1,0,0.2,0c0.1,0,0.2-0.2,0.3-0.2c0.1,0,0.1,0,0.1,0
				c0.1,0,0.1-0.1,0.2-0.1c0,0,0.1,0.1,0.1,0c0,0,0.1-0.1,0.1-0.1c0.1,0,0.2,0,0.4,0c0.1-0.1,1.2-0.6,1.3-0.6c0,0,0.1,0,0.1,0
				c0,0,0,0,0,0.1c-0.2,0-0.3,0.2-0.5,0.2c-0.1,0-0.2,0-0.2,0c0,0-0.1,0.1-0.2,0.2c-0.1,0-0.2,0-0.3,0.1c-0.1,0-0.2,0.2-0.3,0.2
				c-0.4,0.2-0.9,0.2-1.1,0.5h0c0.2-0.1,0.9-0.1,1.3-0.1c0.5-0.1,1.3-0.1,2-0.3c0.2,0,0.4,0,0.6,0c0.9-0.2,2-0.1,2.8-0.3
				c0.2,0,0.4,0,0.6,0c0.5-0.1,1,0,1.5-0.1c0.2,0,0.3,0,0.5,0c0.3-0.1,0.8-0.1,1.1-0.1c0.4-0.1,0.8,0,1.2-0.1c0.5-0.1,1.3,0,1.8-0.1
				c0.2,0,0.4,0,0.6,0c0.4-0.1,1.1,0,1.5-0.1c0.2,0,0.3,0,0.5,0c1-0.2,2.2-0.1,3.1-0.3c0.2,0,0.4,0,0.6,0c0.2-0.1,0.6-0.1,0.9-0.1
				c0.2,0,0.4,0,0.6,0c1.1-0.3,2.3-0.1,3.4-0.4c0.6,0,1.2-0.1,1.7-0.1c0.9-0.2,2.1-0.2,3-0.4c0.2,0,0.3,0,0.5,0
				c0.9-0.2,1.9-0.2,2.8-0.4c0.2,0,0.3,0,0.4,0c2-0.4,4.3-0.4,6.1-0.9c0.1,0,0.2,0,0.3,0c0.1,0,0.2-0.1,0.3-0.1c0.1,0,0.2,0,0.3,0
				c0.1,0,0.4-0.1,0.5-0.2c0.3,0,0.6-0.1,0.9-0.1c0.6-0.1,1.3-0.2,1.9-0.4c0.5-0.1,1,0,1.5-0.2c0.5-0.1,1.7-0.3,2.3-0.3
				c0.1,0,0.2,0,0.3,0c0.6,0,1.3,0,1.9,0c0.2,0.1,0.6,0.1,0.8,0.2c0.1,0,0.4,0,0.5,0c0.2-0.1,0.6,0,0.8,0.1c0,0,0.1,0.1,0.2,0.1
				c0.1,0,0.2,0,0.4,0.1c0.1,0.1,0.3,0.3,0.4,0.3c0,0,0.1-0.1,0.1-0.1c0.2,0,0.4,0,0.5,0.1c0,0.1-0.1,0,0,0.1
				c0.3,0.2,1.4,0.5,1.6,0.9c0,0.1,0,0.2,0,0.3c0.2,0.1,0.3,0.2,0.5,0.3c0.2,0.1,0.4,0.1,0.6,0.3c0,0,0,0.1,0.1,0.1
				c0.1,0,0.2,0,0.3,0c0.1,0.1,0.3,0.2,0.3,0.4c-0.1,0.1-0.1,0.2-0.2,0.3c-0.2,0.2-0.6,0.2-0.9,0.3c0,0.3-0.3,0.4-0.5,0.5
				c0,0,0,0,0,0.1c0.2,0.1,0.6,0.2,0.7,0.4c0,0,0,0,0,0c-0.2,0-0.5,0-0.7,0c0,0,0,0.1,0,0.1c0.1,0.1,0,0.2,0,0.3c-0.2,0-0.4,0-0.7,0
				c-0.1,0.3-0.5,0.3-0.6,0.6c0.2,0.1,0.2,0.2,0.5,0.2c0.1,0.1,0.4,0,0.6,0.1c0,0,0,0,0,0.1c-0.1,0.1-0.3,0.1-0.3,0.2h0c0,0,0,0,0,0
				c0.1,0.1,0.2,0.1,0.2,0.1c0,0,0,0,0,0c-0.1,0-0.5,0.3-0.6,0.3c-0.1,0-0.1-0.1-0.2-0.1c-0.1,0-0.3,0.1-0.4,0.1
				c-0.1,0.1-0.1,0.1-0.1,0.3c0.1,0,0.3,0.1,0.5,0.1c0.1,0.1,0.1,0,0.2-0.1c0.2-0.1,0.5,0,0.7,0c0.3,0.1,0.8-0.2,0.9,0.2
				c0,0,0,0,0,0.1c0.2,0.1,0.6,0,0.7,0.1c-0.2,0.1-0.1,0.3-0.2,0.4c-0.2,0.3-0.8,0.2-0.9,0.7c0,0,0,0,0,0.1c0.1,0.1,0.2,0.1,0.2,0.2
				c-0.1,0.1-0.2,0.2-0.3,0.4c0.1,0,0.1,0.1,0.2,0.1c0.1-0.1,0.1-0.1,0.2-0.1c0.1,0.3,0.3,0.3,0.4,0.5c0.1,0.2,0.2,0.4,0.3,0.6
				c0.3,0,0.3,0.1,0.5,0.2c0.2,0.1,0.4-0.1,0.6-0.1c0.3,0,0.6,0,0.9,0.1c0.4,0.1,0.9-0.1,1,0.3c-0.2,0.1-0.3,0.1-0.4,0.3
				c-0.2-0.1-0.3-0.3-0.6-0.4c-0.1,0.2-0.4,0.2-0.6,0.3c-0.1,0.1-0.2,0.3-0.3,0.5c-0.1,0.1-0.2,0.1-0.3,0.1c0,0.1-0.1,0.1-0.2,0.2
				c-0.1,0-0.1,0-0.2,0c-0.2,0-0.6,0.2-0.6,0.3c-0.1,0.1,0.1,0.5,0.2,0.5c0.1,0,0.2,0,0.3,0c0.1,0,0.2,0.2,0.4,0.3
				c0.1,0,0.2-0.1,0.2-0.1c0.2,0,0.4,0,0.6,0c0.5,0.1,1-0.1,1.4,0c0,0,0,0,0,0.1c-0.2,0-0.5,0-0.7,0.1c0,0.1-0.1,0.1-0.1,0.2
				c0.1,0.1,0.3,0.2,0.3,0.3c-0.1,0-0.2,0.1-0.3,0.1c-0.2,0-0.4,0-0.6,0.1c0,0-0.1,0.1-0.1,0.2c-0.1,0.1-0.2,0-0.4,0
				c0,0,0,0.1-0.1,0.1c-0.2,0-0.4,0-0.5,0c-0.1,0-0.2,0.2-0.3,0.2c-0.1,0-0.1,0-0.2,0c-0.1,0-0.2,0.1-0.3,0.1
				c-0.1,0-0.2-0.1-0.3-0.1c-0.1,0-0.2,0.1-0.4,0.1c0,0,0,0,0,0.1c-0.1,0.1,0,0.2,0,0.3c-0.1,0-0.1,0.1-0.2,0.1
				c-0.1-0.1-0.1-0.2-0.2-0.3c-0.2,0-0.5-0.1-0.5,0.2c0,0,0,0,0,0.1c0.1,0.1,0.3,0.1,0.5,0.2c0,0,0-0.1,0.1-0.1
				c0.1,0.1,0.4,0.2,0.7,0.2l0.1-0.1c0.1,0,0.1,0.1,0.2,0.2c0.1,0,0.2-0.1,0.3,0c0.1,0,0.2,0.1,0.3,0.1c0.1,0,0.6,0.4,0.6,0.5
				c0,0.1,0,0.1,0.1,0.2c0.2,0.2,0.5,0.3,0.5,0.6h-0.1c-0.2-0.2-0.4-0.6-0.8-0.6c-0.5,0.4-2,0.1-2.2,0.6h0c0.1,0,0.1,0,0.2,0.1
				c0.1,0.1,0.1,0.2,0.2,0.3c0,0.5-0.2,0.7-0.3,1.2c0.1,0,0.1,0,0.1,0c-0.2,0-0.6,0.1-0.8,0.2c-0.1,0-0.1,0.1-0.2,0.1
				c-0.1,0-0.3-0.1-0.4,0c-0.1,0.1-0.1,0.1-0.2,0.2c-0.3,0.1-0.5,0.1-0.8,0.2c-0.3,0.1-0.8,0.2-1.1,0.3c-0.1,0-0.2,0-0.3,0
				c-0.2,0.1-0.5,0.2-0.7,0.2c-0.1,0-0.2,0-0.3,0c-0.1,0-0.3,0.1-0.4,0.1c-0.1,0-0.2,0-0.2,0c-1.5,0.4-3.3,0.6-4.8,0.9
				c-0.7,0.2-1.5,0.2-2.1,0.3c-0.2,0-0.4,0-0.6,0c-0.5,0.1-1.1,0.2-1.6,0.3c-0.4,0.1-0.8,0-1.1,0.2c-0.2,0.1-0.5,0.5-0.5,0.7
				c0.1,0.1,0.1,0.1,0.1,0.2c-0.1,0-0.1,0.1-0.2,0.1c-0.2,0.1-0.4,0-0.5,0.1c-0.1,0.1-0.3,0.2-0.4,0.3c-0.1,0-0.2,0-0.4,0
				c0,0.1-0.1,0.1-0.1,0.2c-0.3,0.2-0.7,0-0.7,0.4c0,0,0.1,0.1,0.1,0.2c0.1,0,0.1-0.1,0.2-0.1c0.1,0,0.3,0,0.4,0c0.1,0,0.3,0,0.4,0
				c0,0,0.1-0.1,0.1-0.1c0.1,0,0.2,0,0.3,0c0,0,0.3-0.1,0.5-0.1c0,0,0,0,0,0h0c-0.1,0.1-0.2,0.1-0.3,0.1c-0.1,0,0,0.2-0.1,0.2
				c-0.2,0.1-0.6,0-0.8,0.1c-0.2,0.1-0.3,0.2-0.5,0.3c-0.2,0-0.5,0.1-0.7,0.1c-0.4,0.1-0.8,0.2-1.2,0.4c0,0,0,0,0,0c0,0,0.1,0,0.1,0
				c0.3-0.2,0.9-0.2,1.3-0.3c0.3-0.1,0.6-0.3,1-0.4c0.1,0.1,0.1,0.1,0.2,0.2c0,0,0,0,0,0c-0.2,0.2-0.5,0.2-0.8,0.3
				c-0.6,0.2-1.4,0.4-2,0.6c-0.1,0-0.2,0-0.3,0c-0.1,0-0.3,0.1-0.4,0.1c0,0-0.1,0-0.1,0c-0.1,0-0.2,0.2-0.3,0.2c-0.2,0-0.3,0-0.5,0
				c-0.1,0-0.1,0.1-0.2,0.2c-0.2,0.1-0.5,0-0.8,0.1c-0.4,0.1-0.9,0.2-1.3,0.3c-0.1,0-0.3,0-0.4,0c-0.4,0.1-1.1,0.2-1.5,0.3
				c-0.1,0-0.2,0-0.4,0c-0.8,0.2-1.9,0.2-2.6,0.4c-0.2,0-0.3,0-0.5,0c-0.8,0.2-1.7,0.2-2.5,0.4c-0.3,0.1-0.9,0.1-1.1,0
				c0,0.1,0,0.1-0.1,0.1c-0.2,0.1-0.8,0.1-1,0.2c-0.2,0-0.3,0-0.5,0c-0.3,0.1-1,0.1-1.4,0.3c-0.3,0-0.5,0-0.8,0
				c-1.2,0.3-2.8,0.4-4,0.7c-0.3,0.1-0.7,0-1,0.1c-0.7,0.2-1.6,0.3-2.3,0.5c-0.1,0-0.3,0-0.4,0c-0.6,0.1-1.4,0.3-2.2,0.3
				c0,0,0,0,0-0.1c0.1-0.1,0.3-0.1,0.5-0.1c0.1,0,0.4-0.1,0.6-0.1c0.1,0,0.2,0,0.3,0c0,0,0-0.1,0.1-0.1c0.2-0.1,0.5-0.1,0.7-0.1
				c0.2-0.1,0.3,0.1,0.6,0c0,0,0.1-0.1,0.1-0.1c0.2-0.1,0.5-0.1,0.6-0.1c0.2,0,0.3,0,0.5,0c0.1,0,0.3-0.1,0.4-0.1c0.1,0,0.2,0,0.3,0
				c0.4-0.1,1-0.2,1.5-0.3c0,0,0.1,0.1,0.2,0c0.9-0.2,2.1-0.3,3-0.5c0.1,0,0.3,0,0.4,0c0.4-0.1,1-0.2,1.3-0.3c0.3-0.1,0.7,0,0.9,0
				c0.1,0,0.3-0.1,0.4-0.1c0.2,0,0.4,0,0.6,0c0.6-0.2,1.3-0.2,1.8-0.3c0.3-0.1,0.7,0,0.9-0.2c-0.5,0-0.9,0.1-1.3,0.2
				c-0.1,0-0.3,0-0.4,0c-0.1,0-0.4,0.1-0.6,0.1c-0.1,0-0.3-0.1-0.4,0c-0.2,0-0.2,0.2-0.4,0c-0.1,0.1-0.4,0.2-0.6,0.2
				c-0.2,0-0.4,0-0.6,0c-0.2,0-0.5,0.1-0.6,0.2c-0.1,0-0.3-0.1-0.4-0.1c-0.1,0-0.1,0.1-0.2,0.2c-0.2,0-0.3,0-0.5,0.1
				c0,0-0.1-0.1-0.1-0.1c-0.2,0-0.4,0.1-0.6,0.2c-0.4,0.1-0.7,0-0.9,0c-0.2,0-0.2,0.1-0.4,0.1c0,0,0,0.1,0,0.1c-0.2,0-0.3,0-0.6,0
				c-0.3,0.1-0.6,0.2-1,0.2c-0.3,0-0.5,0.2-0.7,0c0.1,0,0.1,0,0.1-0.1c0,0,0,0,0,0c-0.2,0.1-0.4,0.1-0.6,0.2c0,0,0,0.1-0.1,0.1
				c-0.2,0.1-0.5,0-0.7,0.1c-0.1,0-0.2,0.1-0.4,0.1c0-0.1,0-0.1-0.2-0.1c-0.1,0.1-0.2,0.2-0.4,0.2c-0.2,0-0.7-0.1-0.8,0
				c0,0-0.1,0.1-0.1,0.2c0,0-1,0.1-1,0.1c-0.1,0,0-0.1-0.2-0.1c-0.3,0.3-0.2,0-0.4,0.1c0,0,0,0.1-0.1,0.1c-0.2,0.1-0.4,0-0.7,0.1
				c-0.4,0.1-0.9,0.2-1.5,0.2c0-0.1,0-0.1,0-0.1c-0.2,0.1-0.4,0.3-0.6,0.3c-0.1,0-0.3,0-0.4,0c-0.2,0.1-0.4,0.1-0.7,0.1
				c0-0.1,0-0.1,0-0.2h-0.1c0,0-0.9,0.2-1,0.1c0,0-0.1,0-0.2-0.1c0,0.1,0,0.1-0.1,0.1c-0.1,0.1-0.2,0-0.4,0
				c-0.3,0.1-0.8,0.2-1.1,0.3c0,0,0.2,0.1,0.1,0.1c-0.1,0.1-0.4,0.1-0.6,0.1c0-0.1,0-0.1,0-0.2c0,0,0,0,0,0c-0.5-0.1-0.9,0-1.2,0.1
				c-0.3,0.1-0.5,0-0.8,0c-0.3,0.1-0.6,0.2-1,0.3c-0.3,0.1-0.7,0.1-1,0.1c-0.1,0-0.2,0-0.3,0c0,0-0.1,0.1-0.1,0.1
				c-0.1,0-0.3,0-0.5,0c-0.1,0-0.2,0.1-0.2,0.1c-0.1,0-0.2,0-0.3,0c-0.1,0-0.2,0.1-0.3,0.2c0,0,0,0,0,0c0,0.1,0,0,0.1,0.1
				c0.1-0.1,0.9-0.3,1.1-0.3c0,0,0,0,0,0c0,0,0,0,0,0c-0.2,0.2-0.6,0.3-0.9,0.4c-0.2,0-0.4,0-0.6,0c-0.1,0-0.2,0.1-0.3,0.2
				c-0.1-0.1-0.1-0.2-0.3-0.2c-0.2,0.3-0.2,0.1-0.6,0.2c0,0-0.2,0.1-0.2,0.1c-0.1,0-0.2,0-0.3,0c-0.1,0-0.2,0.1-0.3,0.1
				c-0.2,0-0.4,0-0.5,0c-0.1,0-0.2,0.1-0.3,0.1c-0.1,0-0.3,0-0.5,0c-0.1,0-0.3,0.1-0.5,0.1c0-0.1,0-0.1,0-0.2c-0.1,0-0.2,0-0.3,0.1
				c-0.1,0-0.1,0.2-0.1,0.2c-0.2,0.1-1.1,0.2-1.3,0.1c-0.1,0.3-0.7,0.2-1.1,0.3c-0.1,0-0.4,0-0.5,0c-0.3,0.1-0.8,0.2-1.2,0.3
				c-0.3,0.1-0.4,0-0.7,0.1c-0.4,0.1-0.9,0.2-1.3,0.3c-0.1,0-0.2,0-0.3,0c0,0-0.1,0.1-0.2,0.1c-0.1,0-0.2,0-0.3,0
				c-0.2,0-0.4,0.1-0.5,0.2c-0.1,0-0.2,0-0.3,0c-0.7,0.2-1.6,0.3-2.4,0.5c-0.1,0-0.2,0-0.4,0c-0.1,0-0.4,0.1-0.6,0.2
				c-0.1,0-0.3,0-0.4,0c-0.1,0-0.2,0.1-0.2,0.1c-0.2,0-0.3,0-0.5,0c-0.3,0.1-0.7,0.2-1.1,0.2c-0.4,0.1-0.6,0-1,0.1
				c-0.5,0.1-1,0.3-1.7,0.3c0-0.1,0-0.1-0.1-0.1c0.2,0,0.2-0.1,0.4-0.1c0.2-0.1,0.6,0.1,0.8,0c0.1-0.1,0.1-0.1,0.2-0.2
				c0.2-0.1,0.7-0.1,1-0.2c0.2,0,0.8,0.1,0.9,0c0,0,0.1-0.1,0.1-0.2c0.1,0,0.2,0,0.2,0c0.1,0,0.3-0.1,0.4-0.1c0.2,0,0.4,0,0.7-0.1
				c0.1,0,0.2-0.1,0.4-0.1c0.1,0,0.1,0.1,0.2,0.1c0.1-0.1,0.1-0.2,0.3-0.2c0.4-0.3,0.8,0.2,1.3-0.2c0,0,0,0,0-0.1c0,0-0.1,0-0.1,0
				H99c0.2-0.2,0.4,0,0.8-0.1c0.5-0.1,1.2-0.2,1.7-0.4c0,0,0,0,0,0c-0.1,0-0.1,0-0.2,0c-0.3,0.2-0.7,0.1-1.1,0.2
				c-0.6,0.2-1.4,0.2-2.2,0.4c-0.2,0.1-0.4,0-0.6,0.1c-0.3,0.1-0.6,0.1-1,0.2c-0.2,0-0.5,0-0.7,0.1c-0.5,0.1-1.1,0.2-1.5,0.4
				c-0.3,0.1-0.5,0-0.8,0.1c-0.4,0.1-0.7,0.2-1.1,0.3c-0.2,0-0.4,0-0.6,0c-1.2,0.4-2.7,0.5-3.9,0.8c-0.3,0.1-0.4,0-0.7,0.1
				c-0.6,0.2-1.1,0.2-1.7,0.4c-0.1,0-0.2,0-0.2,0c-0.3,0-0.6,0.1-0.8,0.2c-0.3,0.1-0.7,0-0.8,0.1c-0.1,0-0.1,0-0.1,0.1c0,0,0,0,0,0
				h0.1c0.1,0.1,0.2-0.1,0.3-0.1c0.1,0,0.1,0.1,0.2,0.1c0,0,0,0,0,0c0,0,0-0.1,0-0.1c0.6,0,1.3-0.2,1.9-0.4c0.1,0,0.5,0,0.6,0
				c0.6-0.2,1.1-0.1,1.8-0.3c0.8-0.2,1.6-0.3,2.4-0.6c0.2,0,0.4,0.1,0.5,0.1c0.2,0,0.4-0.1,0.7-0.1c0,0.1,0,0.2,0,0.2
				c-0.8,0.1-1.7,0.2-2.2,0.5c0,0-0.2-0.1-0.3-0.1c-0.5,0.1-1.1,0.1-1.7,0.3c0,0,0,0,0.1,0.1c0,0-0.1,0-0.1,0
				c-0.1-0.2-1,0.2-1.2,0.2c-0.2,0-0.2,0-0.3,0c0,0,0,0,0,0.1c0,0,0.1,0,0.2,0c0.2-0.1,0.7-0.1,1-0.2c0.1,0,0.3,0,0.4,0
				c0.9-0.2,2.2-0.4,3.2-0.7c0.1,0,0.3,0,0.4,0c0.1,0,0.3-0.1,0.4-0.1c0.1,0,0.2,0,0.2,0c1.2-0.4,2.8-0.5,4-0.9
				c0.3-0.1,0.5,0,0.8-0.1c0.4-0.1,1-0.2,1.4-0.4c0.1,0,0.2,0.1,0.4,0.1c0.1,0,0.2-0.2,0.3-0.2c0.2,0,0.4,0,0.6,0
				c0.4-0.1,0.7-0.1,1.1-0.2c0.2,0,0.3-0.2,0.5-0.2c0.1,0,0.2,0,0.2,0c0.1,0,0.3-0.1,0.4-0.1c0.1,0,0.2,0,0.3,0
				c0.1,0,0.2-0.1,0.3-0.2c0.1,0,0.2,0.1,0.4,0c0,0,0.1-0.1,0.1-0.1c0.1,0,0.5,0.1,0.7,0c0.8-0.2,1.5-0.2,2.3-0.4
				c0.2,0,0.2,0.1,0.3,0.1c0,0,0.1-0.1,0.1-0.1c0.2,0,0.4,0,0.6-0.1c0.1,0,0.1-0.1,0.2-0.2c0.2,0,0.4,0,0.7,0
				c0.5-0.2,1.1-0.1,1.5-0.3c0.1,0,0.1,0.1,0.2,0.1c0.1,0,0.4-0.1,0.6-0.2c0.1,0,0.1,0,0.2,0c0.1,0,0.2-0.1,0.3-0.1
				c0.1,0,0.2,0,0.3,0c0.1,0,0.3-0.1,0.5-0.1c0.1,0,0.2,0,0.3,0c0.3-0.1,0.7-0.1,1.1-0.2c0.1,0,0.2,0,0.4,0c0.3-0.1,0.7-0.3,1.1-0.2
				c0,0,0,0,0,0c-0.6,0.1-1.3,0.2-1.8,0.4c-0.2,0-0.4,0-0.6,0c-0.5,0.1-1.2,0.2-1.8,0.4c-0.4,0.1-0.7,0-1.1,0.1
				c-1.1,0.3-2,0.3-3.1,0.6c-0.3,0.1-0.6,0-0.8,0.1c-0.4,0.1-0.9,0.2-1.4,0.3c-0.2,0-0.4,0-0.6,0c0,0-0.1,0.1-0.1,0.1
				c-0.4,0.1-0.8,0.1-1.2,0.2c-0.1,0-0.2,0-0.3,0c-0.4,0.1-0.9,0.2-1.2,0.3c-0.1,0-0.3,0-0.4,0c-0.6,0.2-1.4,0.3-2,0.4
				c-0.2,0-0.3-0.1-0.5,0c-0.4,0.1-0.9,0.2-1.4,0.3c-0.1,0-0.2,0-0.4,0c-0.8,0.2-1.9,0.4-2.6,0.6c-0.4,0.1-0.6,0-1,0.1
				c-0.2,0-0.4,0.2-0.6,0.2c-0.2,0-0.3,0-0.5,0c0,0,0,0.1-0.1,0.1c-0.1,0-0.2,0-0.3,0c-0.2,0-0.6,0.1-0.8,0.2c0,0-0.1,0.1-0.1,0.1
				c-0.1,0-0.4,0-0.5,0c-0.1,0-0.3,0.1-0.4,0.1c-0.1,0-0.3,0-0.4,0c-0.5,0.2-1.3,0.3-1.9,0.5c-0.3,0.1-0.5,0.1-0.8,0.1
				c-0.2,0-0.3,0-0.5,0c-0.6,0.2-1.5,0.3-2.2,0.5c-0.2,0-0.4,0-0.7,0.1c-1.3,0.3-2.6,0.5-3.8,0.8c-0.1,0-0.2,0-0.3,0
				c-0.1,0-0.2,0.1-0.3,0.1c-0.1,0-0.3,0-0.4,0c-0.1,0-0.2,0.1-0.2,0.1c-0.3,0.1-0.5,0-0.8,0.1c-0.4,0.1-1,0.1-1.5,0.3
				c-0.3,0.1-0.7,0.2-1,0.2c-0.2,0.1-0.3,0.2-0.5,0.2c-0.1,0-0.2,0-0.3,0c-0.3,0-0.6,0.1-0.8,0.2c-0.1,0-0.2,0-0.3,0
				c0,0-0.1,0.1-0.1,0.1c-0.2,0-0.3,0-0.5,0.1c-0.2,0.1-0.6,0.2-0.9,0.3c-0.4,0-0.8,0.1-1.1,0.1c-0.6,0.2-1.4,0.3-2,0.5
				c-0.3,0.1-0.7,0-1,0.1c-0.1,0-0.1,0.1-0.2,0.1c-0.2,0.1-0.3,0-0.5,0.1c-0.4,0.1-0.8,0.2-1.1,0.3c-0.3,0.1-0.8,0-1.2,0.1
				c-2,0.6-4.1,0.9-6.1,1.5c-0.1,0-0.2,0-0.3,0c-0.1,0-0.2,0.1-0.3,0.2c-0.1,0-0.2,0-0.4,0c0,0,0,0-0.1,0.1c-0.1,0-0.3,0-0.4,0
				c-0.1,0-0.1,0.2-0.2,0.2c-0.1,0-0.3,0-0.4,0c-0.1,0-0.2,0.1-0.3,0.1c-0.3,0.1-0.5,0-0.8,0.1c-0.1,0-0.2,0.2-0.4,0.2
				c-0.1,0-0.3,0-0.4,0c-0.1,0-0.1,0.1-0.2,0.2c-0.2,0.1-0.4,0.1-0.6,0.2c-0.1,0-0.2,0-0.3,0c-0.1,0-0.4,0.2-0.5,0.2
				c-0.5,0.2-1.1,0.2-1.6,0.4c0,0,0,0.1,0.1,0.1c-0.1,0-0.6,0.2-0.7,0.3c0.4,0,0.5-0.2,1-0.2c0,0,0,0,0,0c0,0.1,0,0.1,0,0.2
				c-0.3,0-1,0.2-1.3,0.3c-0.1,0-0.2,0-0.4,0c-0.7,0.2-1.4,0.4-2,0.7c-0.3,0.1-0.7,0.2-0.9,0.4c-0.1,0.1,0,0.1,0,0.2
				c0,0.1-0.2,0.1-0.2,0.2c0.1,0.1,0.1,0.1,0.1,0.2c0,0,0,0,0,0c-0.1,0-0.1,0-0.2,0c-0.1,0.1,0,0.2-0.2,0.2c-0.1-0.1-0.3,0-0.4-0.2
				c-0.1,0.1-0.4,0.2-0.4,0.3c0.1,0,0,0,0.1,0.1c0,0,0,0-0.1,0c-0.1,0.1-0.4,0-0.5,0.2c0.2,0,0.5,0.3,0.5,0.6c0,0,0,0,0,0
				c-0.1-0.2-0.4-0.4-0.6-0.5c-0.1,0.2-1.3,0-1.3,0.1c-0.2,0.1-0.2,0.3-0.5,0.3c-0.1-0.1-0.1-0.1-0.2-0.1c0,0,0,0,0,0.1
				c0.1,0.1-0.1,0.4-0.1,0.5c-0.1,0.2-0.1,0.4-0.2,0.5c-0.2,0.1-0.6,0.3-0.7,0.6c0.1,0.1,0.2,0.3,0.3,0.5c0,0,0.1,0,0.1,0
				c0,0,0.1,0,0.1,0.1c0,0.1,0,0.1,0,0.2h0.1c0.1,0.1,0.4,0.4,0.4,0.4c0,0.1,0,0.2,0,0.3c0,0,0.1,0.1,0.1,0.1c0,0,0,0.1,0,0.2
				c0.2,0.3,0.5,0.4,0.5,1c0,0,0,0-0.1,0c0,0,0,0,0,0c-0.1-0.1-0.1-0.2-0.1-0.3c0-0.1-0.2-0.2-0.2-0.3c0-0.1,0-0.1,0-0.2
				c0,0-0.1-0.1-0.2-0.1c-0.1-0.1-0.1-0.2-0.2-0.3c0,0-0.1,0-0.1,0c-0.1-0.1,0-0.2-0.1-0.3c0,0-0.1,0-0.1-0.1
				c-0.2-0.3-0.4-0.7-0.7-0.9c-0.2-0.1-0.2,0.1-0.4,0c-0.1,0-0.3-0.1-0.4-0.1c-0.2,0-0.3,0.3-0.6,0.2c0,0-0.1-0.1-0.1-0.1
				c0,0-0.6,0-0.7,0c-0.1,0-0.4,0.1-0.5,0.1l-0.1-0.1c-0.1,0-0.2,0.1-0.4,0.1c0,0-0.1-0.1-0.1-0.1c-0.1,0-0.7,0-0.9,0
				c-0.2,0-0.3,0.1-0.5,0.1c-0.2,0-0.3-0.2-0.5-0.2c0-0.1,0-0.1,0-0.1c-0.1,0-0.1,0.1-0.2,0.1c-0.1,0-0.2-0.1-0.3,0
				c0,0-0.1,0.1-0.1,0.1c-0.1,0-0.1-0.1-0.2-0.1c-0.1,0-0.1,0.1-0.2,0.1c-0.2,0.1-0.4-0.2-0.5-0.1c0,0-0.1,0.1-0.1,0.1
				c-0.1,0-0.2,0-0.3,0c0,0-0.1,0.1-0.1,0.1c-0.1,0-0.3-0.1-0.4-0.1c-0.1,0.1-0.1,0.1-0.1,0.2H33c0,0,0,0,0.1,0c0,0,0,0.1,0,0.1
				c-0.2,0-0.4,0.1-0.5,0.1c0,0,0-0.1,0-0.1c0.1,0,0.1,0,0.1,0c0,0,0,0,0-0.1c0,0,0,0-0.1,0c-0.2-0.1-0.3,0.1-0.4,0.1
				c-0.2,0-0.4-0.2-0.7-0.1c-0.1,0-0.2,0.2-0.2,0.2c-0.3,0.1-0.5-0.1-0.7,0.1c0,0,0,0.1,0,0.2c0,0,0.1,0.1,0.1,0.1
				c0.1,0,0.2,0,0.4,0c0.2,0,0.7-0.3,1-0.3c0,0,0,0,0,0c0,0,0,0,0,0c-0.2,0-0.2,0.1-0.3,0.1c0,0,0,0.1,0,0.1c0,0,0.1,0,0.1,0
				c0,0.1,0,0.1,0,0.1c0,0,0,0,0,0c-0.2,0-0.3,0-0.5,0.1c-0.1,0-0.1-0.2-0.3-0.1c-0.1,0-0.3,0.2-0.4,0.2c-0.2,0.1-0.8-0.1-1,0
				c0.1,0,0.1,0,0.1,0.1c-0.1,0-0.2,0-0.4,0c0,0,0,0,0,0c0,0,0,0,0-0.1c-0.2,0-0.8,0-1,0.2c0,0,0,0,0,0c0.2,0,0.4,0,0.4,0.1
				c0,0,0,0.1,0,0.2c0,0,0,0,0,0c-0.5,0-1.3,0.3-1.8,0.4c-0.1,0-0.3,0-0.4,0c-0.3,0.1-0.5,0.1-0.8,0.2c-0.2,0-0.4,0-0.6,0l-0.4,0.1
				c-0.1,0-0.1,0.2-0.2,0.2c-0.1,0-0.2,0-0.3,0c0,0-0.2,0.1-0.2,0.1c-0.1,0-0.1,0-0.2,0c-0.3,0.1-0.6,0.2-0.9,0.3
				c-0.1-0.1-0.1-0.1-0.1-0.2c0.2-0.2,0.4-0.4,0.6-0.5c0.5-0.3,1.1-0.3,1.7-0.5c0.2-0.1,0.5-0.2,0.7-0.3c0.2-0.1,0.3,0,0.5,0
				c0.1,0,0.3-0.2,0.5-0.2c0.3-0.1,0.5,0,0.7-0.2c0.1-0.1,0.2-0.2,0.3-0.2c0.1,0,0.3,0,0.4,0c0.2,0,0.3-0.2,0.4-0.3
				c0.1,0,0.2,0,0.2,0c0.1,0,0.3-0.2,0.4-0.2c0.1,0,0.2,0,0.3,0c0.1,0,0.3-0.2,0.4-0.2c0.2-0.1,0.4-0.1,0.6-0.1
				c-0.1-0.1-0.1-0.1-0.2-0.2c0.1,0,0.1-0.1,0.2-0.1c0,0,0.1,0,0.1,0c0,0.1,0,0.1,0.1,0.2c0.3,0,0.2-0.1,0.4-0.1
				c0.1,0,0.3,0.1,0.4,0c0.5-0.2,1.4-0.4,1.7-0.7c0.4,0.1,0.2,0,0.6,0c0-0.1,0-0.1,0-0.2c0,0,0,0-0.1-0.1c-0.1,0-0.2,0.1-0.3,0.1
				c0.1,0,0,0,0.1-0.1c-0.1,0-0.2,0-0.3,0c0,0,0,0,0,0c0-0.1,0.1,0,0-0.1c-0.1,0.1-0.3,0-0.5,0.1c-0.1,0-0.2,0.1-0.3,0.1
				c0,0,0,0,0,0.1c0.1,0,0.1,0,0.2,0c0.1-0.1,0.1-0.1,0.2-0.1c0,0,0,0.1,0,0.2c-0.1,0-0.1,0-0.1,0c0,0,0,0,0,0.1c0,0,0,0,0-0.1
				c0.1,0,0.1-0.1,0.2-0.2c0,0.1,0,0.1,0.1,0.2c0,0,0,0,0,0.1c-0.3,0.1-0.3,0-0.5,0.3c-0.3-0.1-0.7,0.1-1,0.1c0-0.1,0-0.1-0.1-0.2
				c0,0,0,0,0,0c0.1,0,0.2,0.1,0.2,0.1h0c0,0,0,0,0,0c-0.1,0-0.1,0-0.1,0h0c0.1,0,0.1,0,0.2,0c0-0.1,0-0.1,0.1-0.2h-0.1
				c-0.2,0.1-0.4,0.1-0.7,0.2c0,0-0.1,0.1-0.1,0.1c-0.2,0.1-0.3,0-0.6,0.1c-0.1,0-0.1,0.1-0.2,0.2c-0.1,0-0.2,0-0.2,0
				c-0.2,0-0.4,0.1-0.6,0.2c0,0.1,0,0,0,0.1c0,0,0,0,0.1,0c0.1-0.1,0.1-0.1,0.2-0.1c0,0,0,0,0,0c0,0.1-0.1,0.1-0.1,0.2
				c-0.3,0-0.7,0-1.1,0.1c-0.1,0-0.3-0.1-0.5,0c-0.1,0-0.2,0.2-0.2,0.2c-0.1,0-0.3,0-0.4,0c-0.4,0.1-1,0.3-1.5,0.3
				c0-0.1-0.1-0.1-0.1-0.2h0c0.1-0.2,0.2-0.2,0.3-0.3c0.1-0.1,0.1-0.3,0.2-0.4c0.1-0.1,0.2,0,0.3-0.1c0-0.1,0.1-0.1,0.1-0.2
				c0.2-0.1,0.3,0,0.4-0.3c-0.6,0-1,0.2-1.5,0.4c-0.2,0-0.3,0-0.5,0.1c-0.2,0.1-0.3,0.2-0.5,0.2c0,0,0,0,0-0.1
				c0.1,0,0.1-0.1,0.1-0.2c0,0,0,0,0,0c-0.1-0.1-0.3,0-0.4,0c-0.1,0-0.2-0.2-0.4-0.3c-0.3-0.1-0.9,0.1-1.2,0.1
				c-0.4-0.1-0.8-0.3-1.3-0.4c-0.3-0.1-0.7,0.1-1,0.2c-0.1-0.1-0.1-0.2-0.3-0.2c-0.1,0.1-0.7,0-0.8-0.1c-0.1-0.1-0.2-0.2-0.2-0.3
				c0.2-0.1,0.4-0.2,0.7-0.2c0.1-0.1,0.1-0.1,0.1-0.2c-0.1-0.2,0-0.3-0.4-0.3c-0.1,0.1-0.8,0.2-1,0.1c-0.2-0.1-0.1-0.2-0.4-0.2
				c-0.1,0.1-0.2,0.1-0.4,0.1c0,0,0,0,0,0c0-0.2,0-0.4,0-0.7c-0.1,0-0.2-0.1-0.3-0.2c-0.2,0.1-1,0.2-1.2,0.2c-0.1,0-0.1-0.2-0.3-0.1
				c-0.4,0.1-0.7,0.2-1.1,0.2c0-0.1-0.1-0.3-0.2-0.4c-0.3-0.2-0.5-0.1-0.9-0.1c0-0.1-0.1-0.1-0.1-0.2c0-0.1,0-0.1,0-0.2
				c0.1-0.2,0.4-0.1,0.4-0.4l-0.3-0.2c0-0.1,0-0.2,0-0.3c-0.1-0.1-0.2-0.2-0.2-0.4c0.2,0,0.4-0.1,0.5-0.2c0.4-0.1,1-0.1,1.2-0.5
				c0-0.1,0-0.2,0.1-0.3c-0.1,0-0.2-0.1-0.3-0.2c0.1,0,0.1,0,0.1-0.1c-0.1,0-0.1,0-0.2,0c-0.1,0-0.1-0.1-0.3,0c-0.2,0-0.6,0.1-0.8,0
				c0,0-0.1-0.1-0.2-0.1c-0.2,0-0.4,0-0.6,0c-0.1,0-0.2-0.1-0.3-0.2c-0.2,0-0.2,0.1-0.3,0c0,0,0,0,0.1,0c0-0.1,0.1-0.1,0.2-0.1
				c0-0.1,0-0.2,0-0.2c0.1-0.1,0.3-0.2,0.5-0.3c0,0,0,0,0,0c-0.1-0.2-0.7-0.1-0.9-0.3c0,0,0,0-0.1-0.1c0,0,0,0,0,0
				c0.2-0.2,0.4-0.3,0.6-0.5c0-0.3-0.1-0.3-0.2-0.5c0.2-0.1,0.2-0.2,0.2-0.4c-0.1-0.1-0.3-0.1-0.3-0.3c0.1-0.1,0.3-0.5,0.3-0.6
				c-0.1-0.1-0.3-0.5-0.3-0.6c0.2-0.1,0.3-0.2,0.5-0.4c0,0,0-0.1,0-0.1c0,0-0.1-0.1-0.1-0.1c-0.2-0.1-0.8-0.1-1-0.2c0,0,0-0.1,0-0.1
				c0.1,0,0.6-0.5,0.6-0.5c0-0.1,0-0.1,0-0.2c0,0,0,0,0,0c-0.1,0-0.2,0-0.3,0c0,0,0,0,0-0.1c0.1-0.1,0.2-0.3,0.3-0.3
				c0.2-0.1,0.3,0,0.4-0.2c0-0.1,0-0.2,0-0.3c-0.1-0.1-0.1-0.1-0.1-0.3c0.1-0.1,0.1-0.1,0.1-0.2c-0.1-0.1-0.2-0.2-0.2-0.4
				c0.5-0.2,1.4-0.3,1.7-0.7c-0.2-0.1-0.4-0.1-0.5-0.2c0-0.1,0-0.2-0.1-0.2c-0.1,0.1-0.3,0.1-0.5,0.2c-0.1,0.1-0.1,0.1-0.2,0.2
				c-0.1,0-0.1,0-0.2,0c0,0,0,0,0,0h0c0.3-0.6,1.7-1.3,2.4-1.6c0,0.1-0.1,0.1,0.1,0.1c0.2-0.2,0.1,0,0.4-0.1c0.1,0,0.3-0.2,0.4-0.3
				c0.1,0,0.2,0,0.3,0c0.4-0.1,1.1-0.3,1.2-0.7c0,0,0-0.1-0.1-0.1c-0.3,0-0.7-0.1-1-0.2c0,0,0,0,0-0.1c0.1,0,0.1,0,0.1-0.1
				c-0.1-0.1-0.1-0.2-0.4-0.2c0,0,0,0,0,0c0,0.1,0,0.2,0,0.2c0,0-0.1,0-0.2,0c-0.1-0.1-0.3-0.1-0.3-0.2c0,0,0,0,0,0
				c0.3,0,1.2-0.2,1.3-0.5c-0.1-0.2,0.1-0.4,0.2-0.5c0.2-0.1,0.5,0.1,0.7,0.1c0.2,0,0.4-0.2,0.6-0.3c0,0,0,0,0,0
				c-0.1,0.1-0.1,0.1-0.1,0.2c0,0,0,0,0.1,0c0.3,0.2,0.7-0.3,0.9-0.4c0.1,0,0.1,0,0.2,0c0,0,0.1-0.1,0.1-0.1c0,0,0.1,0,0.2,0
				c0.2-0.1,0.5-0.4,0.7-0.5c0.1,0,0.2,0,0.3,0c0.1-0.1,0.2-0.3,0.4-0.3c0,0,0.1,0,0.1,0c0,0,0.1-0.1,0.1-0.1c0.1,0,0.1,0,0.2,0
				c0.1-0.1,0-0.1,0.2-0.2c0,0,0.3,0.1,0.4,0.1c0.1-0.1,0.2-0.1,0.3-0.2c0-0.1,0-0.1-0.1-0.2c0.1,0,0.1,0,0.2-0.1c0,0,0,0,0,0
				c-0.1,0,0,0-0.1,0.1c0,0,0,0,0,0c0.2-0.1,0.3-0.3,0.5-0.4c0.2-0.1,0.4-0.1,0.5-0.3c0.1-0.1,0.2-0.3,0.3-0.3
				c0.4-0.2,0.8-0.2,1.2-0.5c0.3-0.2,1.1-0.9,1.6-1c0,0,0-0.1,0-0.1c0.2-0.2,0.5-0.4,0.7-0.6c0.1,0,0.1,0,0.2,0
				c0.2-0.1,0.3-0.3,0.5-0.4c0.1,0,0.1,0,0.2,0c0.2-0.1,0.3-0.3,0.5-0.4c0.3-0.2,0.6-0.3,1-0.5c0.1-0.1,0.2-0.2,0.4-0.3
				c0.2-0.1,0.4-0.2,0.6-0.3c0.1-0.1,0.2-0.2,0.3-0.3c0.1-0.1,0.3-0.1,0.4-0.2c0.2-0.2,0.4-0.2,0.6-0.4c0,0,0.1-0.1,0.1-0.1
				c0.1-0.1,0.4-0.1,0.4-0.2c0,0,0,0,0-0.1c0.1-0.1,0.2-0.2,0.3-0.2c0.1-0.1,0.3-0.1,0.4-0.2c0.1,0,0.1-0.2,0.1-0.2
				c0.2-0.1,0.4-0.1,0.6-0.2c0.2-0.1,0.4-0.3,0.5-0.4c0.1,0,0.2-0.1,0.4-0.1c0.2-0.1,0.4-0.3,0.5-0.4c0.1-0.1,0.3-0.1,0.4-0.1
				c0,0,0.1-0.1,0.1-0.2c0.3-0.2,0.5-0.3,0.8-0.5c0.1-0.1,0.4-0.2,0.5-0.3c0.1,0,0.1,0.1,0.2,0c0.2-0.1,0.5-0.4,0.7-0.5
				c0.1,0,0.3-0.1,0.4-0.1c0.3-0.1,0.6-0.4,0.8-0.5c0.2-0.1,0.7-0.3,0.8-0.6c-0.1,0-0.2-0.1-0.3-0.2c-0.1,0.1-0.1,0.1-0.4,0.1
				c0-0.1,0-0.2-0.1-0.2c-0.2-0.2-0.8-0.1-1.2-0.2c0-0.1-0.1-0.1-0.1-0.2c0.1-0.1,0.1-0.1,0.2-0.2c-0.3-0.1-1-0.1-1-0.5
				c0-0.1,0.3-0.8,0.3-1c-0.1-0.1-0.2-0.2-0.2-0.4c0.2-0.1,0.5-0.5,0.5-0.7c0,0,0,0,0,0c-0.1,0.1-0.1,0.1-0.3,0.2
				c0-0.1,0-0.1-0.1-0.1c-0.1,0.1-0.4,0.1-0.4,0.2c0.1,0,0,0,0.1,0.1c-0.1,0-0.2,0.1-0.3,0.1c0,0,0,0,0,0c0.1,0,0,0,0.1-0.1
				c0,0,0,0,0,0h-0.1c0,0-0.2,0-0.3,0c0,0,0,0,0,0.1c0.1,0,0.1,0,0.1,0.1c-0.1,0.1-0.3,0-0.4,0.1c0,0,0,0.1-0.1,0.1c0,0-0.1,0-0.2,0
				c-0.2,0.1-0.4,0.3-0.6,0.4c-0.3,0.1-0.5,0.2-0.9,0.3c-0.2,0.1-0.5,0.3-0.8,0.4c-0.1,0-0.2,0-0.3,0.1c-0.1,0-0.2,0.2-0.3,0.2
				c-0.9,0.4-1.7,0.7-2.4,1.2c-0.2,0.1-0.5,0.1-0.8,0.2c0,0,0,0.1,0,0.1c-0.1,0.1-0.4,0.1-0.5,0.2c-0.1,0.1-0.3,0.2-0.4,0.3
				c-0.2,0.1-0.6,0.2-0.7,0.4c0.1,0,0.1,0,0.1,0.1c-0.1,0.1-0.4,0.3-0.5,0.4c0,0.1,0,0.2-0.1,0.2c-0.3,0.2-1.2,0.4-1.3,0.8
				c0,0,0,0.1,0,0.2c0,0-0.1,0-0.1,0c0,0,0-0.1,0-0.1c0,0-0.1,0-0.2,0c-0.1,0.1-0.5,0.2-0.5,0.4c-0.4,0-0.6,0.1-0.8,0.4
				c-0.2-0.2-0.3,0-0.5,0.1c-0.1,0-0.2,0-0.3,0c-0.2,0.1-0.4,0.3-0.6,0.4c-0.1,0-0.2,0-0.3,0c-0.1,0-0.2,0.1-0.2,0.2
				c-0.1,0-0.1-0.1-0.2,0c-0.1,0.1-0.1,0.1-0.1,0.2c-0.1,0-0.1,0-0.2,0.1c0,0.1,0.2,0.4,0.2,0.4c0,0,0,0-0.1,0c0-0.1,0-0.1,0-0.1
				c0-0.1-0.1-0.2-0.1-0.2c-0.1,0-0.2,0-0.2,0.1c0,0,0,0.1,0,0.1c0,0,0,0.1-0.1,0.1c-0.1,0-0.1-0.1-0.2-0.1c0,0.1,0,0.1-0.1,0.1
				c-0.1,0-0.1-0.1-0.1,0c-0.2,0.1-0.4,0.3-0.6,0.4c-0.2,0.1-0.4,0.1-0.6,0.2c-0.3,0.2-0.3,0.4-0.7,0.4c-0.1,0.1-0.2,0.3-0.3,0.4
				c-0.2,0.2-0.4-0.1-0.5,0.3c0,0,0,0,0,0h0c0.1,0,0.2-0.1,0.3-0.1c0,0,0,0.1,0,0.1c0,0,0,0,0,0.1c0.1,0.1,0.2,0.1,0.2,0.1
				c0,0,0,0,0,0.1c-0.1,0-0.2,0.1-0.3,0.1c-0.1,0-0.1,0-0.1-0.1c0.1,0,0.1-0.1,0.1-0.2c-0.1,0-0.1,0-0.1,0c-0.3,0.2-0.7,0-0.8,0.1
				c0,0,0,0.1-0.1,0.2c-0.1,0.1-0.3,0.2-0.4,0.3c0,0,0,0,0,0c-0.1,0-0.1,0-0.2,0c-0.1,0.1-0.2,0.2-0.3,0.3c0,0.1,0.1,0.1,0,0.2
				c0,0.1-0.2,0.2-0.2,0.2c0,0,0-0.1,0-0.1c0.1-0.1,0,0,0.1-0.1c0,0,0,0,0,0c-0.2,0.1-0.3,0.2-0.4,0.3c-0.1,0.1-0.3,0.1-0.4,0.2
				c0,0-0.1,0.2-0.1,0.2c-0.1,0.1-0.3,0.1-0.4,0.2c-0.1,0.1-0.1,0.2-0.2,0.3c0,0-0.1-0.1-0.1,0c-0.1,0-0.4,0.2-0.5,0.3
				c-0.3,0.2-0.6,0.5-1,0.6c0,0.1-0.3,0.3-0.2,0.4c0,0.1,0.1,0,0.1,0.2c-0.1,0.1-0.1,0.1-0.1,0.2c-0.1,0.1-0.2,0.2-0.4,0.2
				c0,0,0,0,0,0c0-0.1,0-0.1,0-0.2c0.2,0,0.2-0.1,0.3-0.3c0,0,0,0,0,0c-0.2,0.1-0.6,0.3-0.7,0.5c-0.3,0-0.3,0.2-0.5,0.4
				c-0.1,0.1-0.2,0.1-0.4,0.2c-0.1,0.1-0.2,0.2-0.2,0.3c0,0.1,0,0.1,0.1,0.2c-0.1,0-0.1,0-0.1,0.1c0,0-0.1,0-0.1,0
				c0-0.1,0.1-0.2,0.1-0.3c0,0,0,0-0.1,0c-0.1,0.1-0.2,0.1-0.3,0.2c-0.1,0.1-0.1,0.1-0.1,0.2c0,0,0,0.1,0,0.1
				c-0.3,0-0.3,0.1-0.4,0.2c-0.2,0.1-0.4,0.1-0.6,0.2c-0.2,0.2-0.3,0.5-0.6,0.7c0,0,0,0.1,0,0.1c-0.1,0-0.1,0.1-0.2,0.1
				c0-0.1,0-0.1,0-0.1h-0.1c0,0,0,0.1,0,0.1c0,0.1,0,0,0,0.1c0,0-0.1,0-0.2,0c0,0.1,0,0.2,0,0.2c0,0-0.1,0-0.1,0
				c-0.1,0.2-0.3,0.2-0.3,0.5c0,0,0,0,0,0.1c-0.1,0-0.1,0-0.1,0h0c0.1,0.1,0.1,0,0.1,0.2c-0.2,0.1-0.3,0.2-0.4,0.4
				c-0.3,0-0.5,0.1-0.7,0.3c0,0,0,0.1-0.1,0.2c-0.1,0.1-0.3,0.1-0.4,0.2C8,153.8,7.9,154,7.7,154c-0.1,0-0.1,0-0.1-0.1
				c-0.2,0-0.3,0-0.5,0.1c0,0,0,0.1,0,0.1c0.1,0,0.3,0,0.3,0.2c0,0,0,0,0,0.1c-0.2,0-0.3,0-0.5-0.1c0,0,0,0,0-0.1c0.1,0,0,0,0.1-0.1
				c0,0,0,0,0,0c-0.1,0-0.2,0-0.4,0.1c0-0.2,0.1-0.2,0.1-0.4c-0.1,0-0.2-0.1-0.2-0.1c-0.4,0.2-0.5,1.1-1,1.2c0,0-0.1,0-0.2,0
				c0,0,0-0.1,0-0.1c0.2-0.1,0.5-0.6,0.5-0.8c-0.1,0-0.1,0-0.2,0c-0.1-0.1-0.1-0.3-0.3-0.4c-0.1,0-0.3,0-0.4,0
				c0,0.3-0.1,0.5-0.2,0.6c0,0-0.1,0-0.2,0c0,0,0,0,0,0c0-0.1,0-0.1,0-0.2c0.2-0.1,0.3-0.3,0.4-0.6c-0.2-0.1-0.6-0.3-0.7-0.5
				c0.1-0.1,0-0.6,0.1-0.8c0,0,0.1,0,0.1,0c0-0.1,0-0.1,0.1-0.2c0.1-0.2,0.3-0.3,0.5-0.5c0-0.1,0-0.1,0-0.2c0,0,0.2,0,0.2-0.1
				c0.3-0.3,0.8-0.8,0.9-1.2c-0.2,0-0.4-0.2-0.5-0.3c-0.1,0,0,0-0.1,0c0,0.1-0.1,0.2-0.1,0.2c-0.2,0-0.3,0.1-0.5,0.1
				c0-0.1,0-0.1,0-0.1c0.1-0.1,0.2,0,0.3-0.1c0,0,0.2-0.3,0.2-0.4c-0.1,0-0.1,0-0.1-0.1c-0.2,0-0.3,0.1-0.5,0.2c-0.1,0-0.3,0-0.4,0
				c-0.1,0-0.3,0.2-0.5,0.1c0.1,0,0.4-0.1,0.5-0.2c0,0,0.1-0.2,0.1-0.2c0.1,0,0.2,0,0.2,0c0.1,0,0.2-0.2,0.2-0.3
				c-0.1,0-0.2,0-0.2-0.1c0.1-0.1,0.1-0.1,0.1-0.3c0,0,0,0-0.1,0c-0.1,0.1-0.6,0.4-0.7,0.5c0,0.1,0,0.1,0,0.2c0,0.1-0.3,0.3-0.4,0.4
				c0.1,0.1,0.1,0,0.1,0.1c0,0.1,0,0-0.1,0.1c0,0,0,0-0.1,0c0,0,0,0,0,0c-0.1,0.1,0,0.2-0.1,0.3c0,0-0.1,0-0.1,0
				c-0.1,0.1-0.3,0.5-0.4,0.6c0,0-0.6,0-0.8,0c-0.1,0.2-0.3,0.6-0.4,0.7c-0.1,0.1-0.2,0.1-0.3,0.2c0,0-0.1,0-0.1,0c0,0,0,0,0-0.1
				c0.1-0.1,0.2-0.2,0.2-0.2c0-0.2-0.1-0.2-0.1-0.4c-0.1,0-0.2,0-0.3,0c0-0.2-0.1-0.1-0.1-0.3c0.1,0,0.2,0,0.2-0.2
				c0,0-0.1-0.7-0.1-0.8c0-0.1,0.1-0.1,0.1-0.2c0-0.1-0.1-0.3,0-0.4c0.2-0.3,0.6-0.5,0.7-0.9c0-0.1-0.3-0.1-0.5-0.2
				c0,0,0-0.1-0.1-0.2c0,0-0.1,0-0.2-0.1h0c-0.1-0.1,0-0.2-0.1-0.3c0,0-0.1,0-0.1-0.1c-0.1-0.1,0-0.6,0-0.7c0.1-0.2,0.4-0.4,0.4-0.6
				c0-0.2-0.1-0.3,0-0.5c0.1-0.2,0.2-0.2,0.3-0.4h0c0,0,0,0,0,0c-0.1-0.1,0-0.1-0.2-0.1c0,0,0,0-0.1,0c0,0,0,0,0,0
				c-0.1,0.1-0.1,0.2-0.2,0.2c-0.1-0.2-0.1-0.2-0.2-0.4c0.1-0.2,0.1-0.4,0.3-0.6c0,0,0.1,0,0.1,0c0.1-0.1,0.2-0.3,0.3-0.4
				c0-0.1,0.2-0.1,0.2-0.1c0.1-0.1,0.1-0.2,0.1-0.4c0.1-0.2,0.3-0.4,0.4-0.6c0-0.1,0-0.1,0-0.2c0.1-0.1,0.2-0.3,0.3-0.4
				c0.1-0.1,0.2-0.2,0.3-0.3c0.1-0.2,0.2-0.4,0.4-0.6c0.1-0.1,0.1-0.1,0.2-0.2c0,0,0,0,0,0c-0.1,0.1-0.2,0.1-0.3,0.1c0,0,0,0,0,0
				c0,0,0-0.1,0.1-0.1c0.2,0,0.3-0.1,0.4-0.2h0c-0.1,0.1-0.1,0.1-0.2,0.1c0,0,0,0,0,0c0,0,0-0.1,0.1-0.1c0,0,0,0-0.1,0
				c-0.1,0.1-0.3,0.1-0.4,0.2c0,0,0,0,0,0c0,0,0,0,0,0c0.2-0.2,0.5-0.3,0.7-0.5c0.1-0.1,0.1-0.2,0.2-0.2c0.2-0.2,0.5-0.4,0.8-0.6
				c0,0,0,0,0,0c-0.1,0-0.1,0-0.1,0c0.1-0.1,0.1-0.2,0.1-0.3c0,0,0,0-0.1,0c-0.1,0.1-0.3,0.1-0.4,0.2c0,0-0.1,0.1-0.1,0.2
				c-0.5,0-0.7,0.3-1,0.6c-0.1,0.1-0.3,0.1-0.4,0.2c-0.1,0.1-0.1,0.2-0.3,0.3c0,0,0,0,0-0.1c0.2-0.1,0.2-0.4,0.4-0.4c0,0,0,0,0.1,0
				c0.1-0.7,0.6-0.9,1.1-1.2c0.2-0.2,0.4-0.5,0.7-0.6c0.1-0.1,0.3-0.1,0.4-0.2c0.1-0.1,0.3-0.3,0.4-0.4c0.3-0.2,0.6-0.3,0.9-0.5
				c0,0,0.1-0.1,0.1-0.2c0.2-0.1,0.3-0.1,0.5-0.2c0.8-0.6,1.8-1,2.6-1.6c0.1-0.1,0.4-0.1,0.5-0.2c0.1-0.1,0.2-0.2,0.4-0.3
				c0.3-0.1,0.5-0.2,0.8-0.3c0.5-0.3,1.2-0.6,1.7-1c0.2-0.2,0.5-0.2,0.8-0.3c0.2-0.1,0.3-0.3,0.5-0.3c0.1,0,0.2,0,0.3,0
				c0.2-0.1,0.3-0.3,0.5-0.4c0.2,0,0.3-0.1,0.5-0.1c0.2-0.1,0.4-0.3,0.6-0.4c0.1,0,0.1,0,0.1,0c0.2-0.1,0.4-0.2,0.5-0.3
				c0,0,0.1,0,0.2,0c0.1,0,0.1-0.1,0.2-0.2c0.1,0,0.1,0,0.2,0c0,0,0.1-0.1,0.1-0.2c0.1-0.1,0.3,0,0.4-0.1c0,0,0-0.1,0-0.1
				c0.2-0.1,0.5-0.2,0.7-0.3c0.1-0.1,0.1-0.1,0.2-0.2c0.1,0,0.1,0,0.2,0c0,0,0.1-0.2,0.1-0.2c0.1-0.1,0.3,0,0.4-0.1
				c0.1-0.1,0.3-0.2,0.4-0.3c0.1,0,0.1,0,0.2,0c0.1,0,0.2-0.2,0.3-0.3c0.1,0,0.2,0,0.3,0c0,0,0.1-0.2,0.2-0.2c0.1,0,0.1,0,0.1,0
				c0.2-0.1,0.3-0.3,0.5-0.3c0.2-0.1,0.4-0.1,0.6-0.2c0-0.1,0.1-0.1,0.1-0.2c0.1,0,0.2,0,0.3,0c0.3-0.1,0.5-0.4,0.9-0.4
				c0,0,0,0.1,0,0.1c0.1,0,0.1,0,0.3,0c0,0.1,0,0,0,0.1c0.2-0.1,0.9-0.3,0.9-0.6c0,0-0.1,0-0.2,0c0,0,0,0-0.1,0c0,0,0,0,0,0
				c0,0,0,0.1-0.1,0.1c-0.2-0.1-0.2,0-0.4,0c0,0,0,0,0,0h0c0.1-0.1,0.2-0.1,0.2-0.2c-0.1-0.1-0.3-0.2-0.3-0.3c0,0,0.1,0,0.1,0
				c0.3-0.2,1.1,0,1.4-0.2c0.1-0.1,0.1-0.1,0.1-0.2c-0.2-0.1-0.4-0.1-0.5-0.3c0,0,0,0,0-0.1c0.2-0.1,0.4-0.3,0.4-0.6
				c-0.2-0.2,0-0.4,0-0.7c-0.1,0-0.2-0.1-0.2-0.1c-0.4-0.1-0.8,0.1-1.2,0c-0.3-0.1-0.4-0.4-0.7-0.5c-0.4-0.1-0.7,0.1-1.1-0.1
				c-0.1-0.1-0.2-0.4-0.3-0.4c0,0-0.1,0-0.2,0c-0.1,0-0.4-0.1-0.4-0.2c0-0.3,0-0.5,0-0.8h0c0.1-0.2,0.3-0.2,0.3-0.5
				c-0.2-0.3-0.2-0.7-0.6-0.8c-0.2,0.1-0.4-0.1-0.5-0.2c-0.1,0-0.8-0.1-0.9-0.1c-0.3,0.1-0.4,0.3-0.7,0.4c-0.1-0.1-0.4-0.1-0.5-0.2
				c-0.1-0.2,0-0.7,0-0.9c-0.1-0.6,0.3-1.2,0.6-1.6c0.1-0.2,0.1-0.5,0.2-0.8c0.1-0.2,0.3-0.4,0.4-0.7c-0.1,0-0.1,0-0.2-0.1
				c-0.3,0.2-1,0.1-1.5,0.2c-0.2,0.1-0.5,0.1-0.8,0.2c-0.2,0-0.3,0-0.5,0.1c-0.2,0.1-0.4,0.3-0.7,0.4c0,0,0,0,0-0.1
				c0.1-0.1,0.1-0.1,0.1-0.2c-0.5,0-0.8,0.2-1.3,0.2c0-0.2,0-0.4,0-0.6c0,0-0.1,0-0.1,0c0,0-0.5,0.2-0.6,0.2c-0.1,0-0.2,0-0.2,0
				c-0.1,0-0.2,0.1-0.3,0.1c-0.2,0.1-0.5,0.1-0.8,0.1c-0.1,0-0.2,0-0.3,0c-0.1,0.1,0,0.1-0.3,0.1c-0.3,0-0.7,0.3-0.9,0.2
				c-0.1,0,0,0-0.1,0c0.2-0.2,0.1-0.2,0.1-0.4c0-0.1,0.2-0.1,0.2-0.2c0,0,0-0.1,0-0.1c0.1-0.1,0.2-0.1,0.2-0.2c0-0.1,0-0.1,0-0.2
				c0.1-0.1,0.2-0.1,0.3-0.2c0.1-0.1,0.1-0.4,0.3-0.5c0.2-0.2,0.8-0.7,0.9-1c-0.1,0-0.2,0-0.4,0c0,0,0,0,0,0c0,0,0,0,0-0.1
				c0.3-0.1,1.2-1,1.3-1.4c0,0,0,0,0,0c-0.2-0.1-0.6,0-0.9,0c-0.5,0-1,0-1.5,0c-0.1,0-0.2,0.1-0.3,0.1c0,0,0-0.1,0-0.1
				c-0.2-0.1-0.3-0.2-0.5-0.2c-0.2,0-0.5,0-0.6,0c-0.3-0.1-0.2-0.3-0.8-0.3c0,0.1,0,0-0.1,0.1c0-0.5-0.3-0.2-0.5-0.5
				c0-0.1,0-0.2,0-0.3c-0.1-0.1-0.4-0.2-0.5-0.2c-0.1,0-0.3,0-0.4,0c0,0,0,0-0.1-0.1c0.2-0.1,0.4-0.3,0.5-0.5h0
				c-0.1-0.1-0.2-0.2-0.3-0.3c0-0.1,0.1-0.1,0.1-0.2c-0.1-0.1-0.1-0.1-0.2-0.3c0.1,0,0.2-0.1,0.2-0.2c0-0.1,0-0.2-0.2-0.3
				c-0.1-0.1-0.3,0-0.5-0.1c-0.1,0-0.2,0-0.3,0c-0.2-0.1-0.4-0.2-0.6-0.3c0-0.1,0-0.2-0.1-0.3c-0.1-0.1-0.5,0-0.6-0.1c0,0,0,0,0-0.1
				c0.1,0,0.1-0.1,0.1-0.2c-0.1,0-0.1-0.1-0.2-0.2c-0.3-0.2-0.6,0-0.9-0.1c0,0,0,0,0-0.1c0.2,0,0.4-0.1,0.4-0.2c0,0,0-0.1,0-0.2
				c-0.1-0.1-0.3-0.1-0.3-0.3c0.1,0,0.2-0.1,0.3-0.2c-0.1-0.1-0.1-0.3-0.2-0.4c0,0-0.1,0-0.1-0.1c0.1,0,0.2-0.1,0.2-0.2
				c-0.1-0.1-0.1-0.2-0.1-0.3c0.2,0,0.2-0.1,0.4-0.1c0-0.1-0.1-0.2-0.1-0.4c-0.1-0.1-0.3-0.1-0.3-0.3c0.2,0,0.2-0.1,0.2-0.3
				c-0.1-0.1-0.1-0.2-0.4-0.2c-0.1,0-0.1,0-0.1,0H5c0.1-0.2,0.4-0.3,0.6-0.5c-0.2-0.1-0.4-0.4-0.5-0.6c0.3-0.1,0.6,0,0.7-0.2
				c-0.1-0.1-0.1-0.3-0.2-0.4c-0.2-0.1-0.4-0.1-0.5-0.4c0.2-0.1,0.3-0.1,0.5-0.2c0,0,0-0.1,0-0.1c0,0,0,0-0.1-0.1
				c0.1,0,0.4-0.2,0.4-0.3c0.2-0.3,0-0.8,0-1.1c-0.2-0.1-0.4-0.2-0.5-0.4c0,0,0,0,0-0.1c0.2,0,0.5-0.1,0.6-0.3
				c0-0.1,0.1-0.1,0.1-0.2c-0.1-0.1-0.2,0-0.2-0.2c0.2-0.1,0.6-0.2,0.6-0.5c0,0,0,0,0,0c-0.2-0.1-0.6,0.1-1-0.2c0.1,0,0.2,0,0.3,0
				c0,0,0,0,0-0.1c-0.1-0.1-0.1-0.1-0.1-0.3c0,0,0,0,0,0c0.4,0,0.7-0.1,1-0.2c0,0,0,0,0-0.1h0c-0.1,0-0.2,0-0.3-0.1
				c0.3,0,0.4-0.2,0.4-0.6c-0.1,0-0.2,0-0.4,0C6.4,99.1,6,99.3,5.9,99c0,0,0-0.1,0-0.1c0,0,0,0,0,0c0.4,0,0.6-0.1,0.9-0.1
				c0,0,0-0.1,0-0.1c0,0,0,0,0,0c-0.1,0-0.2,0-0.2,0c0-0.1,0-0.1,0-0.2c0.1-0.1,0.2-0.4,0.3-0.5c-0.2,0-0.4-0.2-0.5-0.3
				c0.1-0.1,0.7-0.8,0.7-0.9c0-0.1,0-0.1-0.1-0.1c-0.2,0.1-0.4,0.2-0.6,0.2c-0.1-0.1-0.1-0.1-0.1-0.2c0.3-0.2,0.6-0.7,0.8-1
				c0,0,0,0,0.1,0.1c0-0.1,0.2-0.3,0.2-0.3c0,0,0,0,0.1,0c0.1-0.1,0.2-0.2,0.2-0.3c0,0,0,0,0,0c-0.1,0-0.1,0.1-0.1,0.1
				c0,0,0-0.1,0-0.1c0.1-0.1,0.1-0.2,0.2-0.3c0.3-0.3,0.6-0.5,0.9-0.7c0.1,0,0.1-0.2,0.1-0.2c0.2-0.1,0.5-0.3,0.6-0.5
				c0-0.1,0-0.2,0-0.2c0.1-0.1,0.3-0.1,0.5-0.2c0.1-0.1,0.5-0.6,0.5-0.7c0,0,0,0,0,0c-0.2,0-0.3,0-0.5-0.1c-0.2,0.3-0.4,0.3-0.7,0.5
				c-0.1,0.1-0.2,0.3-0.3,0.4c0,0-0.1,0-0.1,0c-0.1,0.1-0.1,0.2-0.2,0.3c-0.1,0-0.2,0.1-0.2,0.1c0,0,0,0.1,0,0.1
				c-0.1,0.1-0.2,0.1-0.4,0.2c-0.3,0.2-0.3,0.5-0.7,0.6c0-0.2-0.2-0.3-0.2-0.5c0.2-0.1,0.1-0.3,0-0.5c0.2-0.1,0.2-0.3,0.3-0.5
				c0.2-0.3,0.9-0.6,1-1c-0.1,0-0.1,0-0.1,0c-0.2,0.1-0.2,0.2-0.3,0.3c-0.1,0.1-0.7,0.4-0.9,0.5c0,0,0-0.1,0-0.1
				c0.1-0.1,0.2-0.5,0.2-0.7H7c0.4-0.6,0.9-1.2,1.4-1.7C8.6,90.1,8.8,90,9,89.8c0.1-0.1,0.1-0.4,0.2-0.5c0.2,0.1,0.5-0.1,0.5-0.3
				c0,0,0,0,0,0c0.1,0,0.1,0,0.2,0c0.2-0.2,0.5-0.3,0.6-0.5c-0.1-0.1-0.1-0.1-0.3-0.1c-0.1,0.1-0.2,0.2-0.4,0.2c0,0,0-0.1,0-0.1
				c-0.1,0-0.1,0-0.2,0c0,0,0,0,0,0c0,0,0-0.1,0-0.1c0.2-0.1,0.4-0.3,0.5-0.5c0.3,0,0.7-0.1,1-0.3c0.1-0.1,0.2-0.3,0.4-0.3
				c0.2-0.1,0.3-0.1,0.5-0.2c0.1-0.1,0.2-0.2,0.3-0.3c0.2-0.1,0.6-0.2,0.7-0.4c0,0,0,0,0-0.1c0,0-0.1,0-0.1,0
				c-0.1,0.1-0.3,0.3-0.5,0.3c0-0.1,0-0.1,0-0.2c0.1-0.1,0.4-0.2,0.5-0.4c0,0,0,0,0,0c-0.3,0.1-0.5,0.2-0.8,0.2c0-0.1,0-0.1,0-0.2
				c-0.3,0-0.3-0.1-0.5,0c0-0.1,0.1-0.3,0.2-0.4c-0.1-0.1-0.1-0.2-0.1-0.3c0.2,0,0.3-0.2,0.4-0.3c0,0,0,0,0,0c-0.1,0-0.1,0-0.2-0.1
				c0-0.1,0-0.1,0.1-0.1c-0.3,0-0.5,0-0.7-0.2c0,0,0-0.1,0-0.2c0,0,0,0,0-0.1c0.2,0,0.7-0.3,0.7-0.5c-0.1,0-0.1,0-0.1-0.1
				c0.2,0,0.5-0.2,0.6-0.4c0,0-0.1,0-0.1,0c-0.1,0.1-0.2,0.2-0.5,0.2c0,0,0,0,0-0.1c0.1,0,0.2-0.1,0.2-0.1c0,0,0,0,0,0
				c-0.8,0.3-1.5,0.5-2.1,0.9c-0.3,0.1-0.7-0.1-0.9,0.2c0,0,0,0,0,0.1c-0.1,0-0.2,0-0.3,0c-0.1,0.1-0.2,0.2-0.4,0.3
				c0-0.1,0-0.1,0-0.2c0.2-0.1,0.2-0.2,0.2-0.4C8.6,84.1,8.9,84,9,83.7c0,0,0-0.1,0-0.1c-0.1,0,0,0-0.1-0.1c0.2-0.1,0.4-0.4,0.4-0.7
				C9,82.7,9.1,82.5,9,82.4c-0.1-0.1-0.2,0-0.3-0.1c-0.1-0.1,0-0.3,0-0.4c0,0-0.1,0-0.1,0c-0.1,0.1-0.3,0.2-0.4,0.2c0,0,0,0,0-0.1
				c0.1,0,0.3-0.1,0.3-0.2c0,0,0,0,0-0.1c-0.3,0-0.5,0.1-0.9,0.1c0,0,0,0,0-0.1c0,0,0-0.1,0-0.2c0.1-0.1,0.1-0.1,0.2-0.2
				c0-0.1,0-0.1,0-0.2c0.2,0,0.4-0.1,0.6-0.1c0-0.1,0.1-0.1,0.1-0.2c-0.1-0.1-0.1-0.3-0.3-0.3c-0.1,0-0.1,0-0.2,0.1
				c-0.1,0-0.2,0-0.3-0.1c0,0,0,0,0-0.1c0.2-0.1,0.3-0.5,0.4-0.8c0,0,0,0,0,0c-0.1,0-0.2,0.1-0.3,0.1c0,0,0,0,0-0.1c0,0,0,0,0,0
				c0.2-0.1,0.5-0.3,0.7-0.4c0-0.1,0-0.1,0-0.2c-0.5,0-0.9,0.3-1.2,0.5c-0.1,0-0.1,0-0.2,0c0,0-0.1,0.1-0.1,0.1c-0.1,0-0.2,0-0.4,0
				l-0.3,0.1c0,0,0,0.1,0,0.1c-0.1,0.1-0.1,0-0.2,0c-0.3,0.1-0.5,0.4-0.9,0.4c0,0,0,0,0,0c0,0,0,0,0-0.1c0.1,0,0.3-0.1,0.3-0.3
				c-0.1,0-0.2,0-0.3,0c-0.2,0.2-0.6,0.3-0.9,0.3c-0.1-0.1-0.2-0.1-0.4-0.1c-0.2,0.2-1.1,0.5-1.4,0.5c0-0.1,0-0.1-0.1-0.2
				c0.4-0.2,0.8-0.4,1.1-0.6c0.1,0,0.2-0.1,0.3-0.1c0.3-0.2,0.6-0.6,0.9-0.7c0,0,0,0,0,0c-0.1,0-0.1,0-0.1,0c0,0,0,0,0,0
				C5,79,5.3,78.9,5.4,78.8c0.1,0,0.1,0,0.2,0c0,0,0.1-0.1,0.1-0.1c0.2-0.1,0.3,0,0.4-0.1c0.1-0.1,0.1-0.1,0.2-0.2
				c0.1,0,0.2,0,0.4-0.1c0.1,0,0.2-0.2,0.3-0.2c0.3-0.1,0.7,0,0.8-0.3c-0.1,0,0,0-0.1-0.1c0.5-0.1,0.5-0.5,0.9-0.6
				c0.2,0.1,0.4-0.1,0.6-0.2c0.1,0,0.3,0,0.4,0c0.2-0.1,0.6-0.3,0.8-0.3c0.1,0,0.2,0,0.2,0l0.4-0.2c0.1,0,0.1-0.2,0.2-0.2
				c0.1,0,0,0.1,0.2,0.1c0.2,0,0.4-0.2,0.6-0.2c0.1,0,0.2,0,0.2,0c0.2-0.1,0.5-0.3,0.7-0.4c0.2-0.1,0.4-0.1,0.7-0.2
				c0.2-0.1,0.4-0.3,0.7-0.3c0.4-0.1,0.6-0.2,1-0.3c0.1,0,0.2-0.2,0.3-0.2c0.2-0.1,0.3,0,0.4-0.2c-0.1-0.1-0.1-0.1,0-0.2
				c0,0-0.1,0-0.1,0c-0.2,0.2-0.7,0.2-1,0.3c-0.2,0.1-0.5,0.3-0.8,0.4c-0.1,0-0.2,0-0.2,0c-0.1,0-0.2,0.1-0.2,0.1
				c-0.1,0-0.1-0.1-0.2,0c-0.1,0.1-0.3,0.2-0.5,0.3c-0.1,0-0.3,0-0.4,0c-0.1,0-0.2,0.1-0.3,0.1c0,0,0,0.1,0,0.1c0,0,0,0,0,0
				c-0.1,0-0.3,0.1-0.5,0.1c0,0.1,0,0,0,0.1C11.2,76,10.1,76,10,76.1c0,0.1,0,0,0,0.1c-0.1,0-0.3,0-0.3,0c0,0,0,0,0,0.1
				c0,0,0,0,0.1,0.1H9.7c0,0-0.1,0-0.1-0.1c0,0.2,0,0.2-0.1,0.2c-0.1,0-0.2,0-0.3,0c-0.1,0-0.1,0.2-0.3,0.2c-0.1,0-0.1,0-0.2,0
				c-0.1,0,0,0.2-0.3,0.3c-0.1,0.1-0.1,0-0.2,0c-0.1,0-0.1,0.1-0.2,0.1C8,77,8,77,8,76.9c0.6-0.2,1.1-0.4,1.6-0.7
				C9.6,76.1,10,76,10.1,76c0.1-0.1,0.2-0.2,0.3-0.3c1.2-0.5,2.3-0.9,3.3-1.5c0,0,0-0.1,0-0.1c-0.2,0-0.2,0.1-0.4,0.1
				c-0.1,0-0.2,0-0.2,0c0,0-0.1,0.1-0.1,0.1c-0.2,0.1-0.5,0-0.6,0c0,0-0.1,0.1-0.1,0.2c-0.1,0-0.2,0-0.3-0.1c-0.1,0-0.3,0.2-0.4,0.3
				c-0.1,0-0.2,0-0.3,0c-0.2,0.1-0.4,0.3-0.7,0.3c0,0,0,0,0-0.1c0.1,0,0.1-0.1,0.2-0.1c-0.2,0-0.6,0.2-0.7,0.3h0.1
				c0-0.1,0,0,0.1-0.1c0,0,0,0.1,0,0.1c-0.5,0.3-1.1,0.5-1.7,0.5c0-0.1-0.1-0.1-0.1-0.2c-0.7,0-1.1,0.5-1.9,0.5c0,0,0,0,0-0.1
				c0.1,0,0.2-0.2,0.2-0.3c0,0,0,0,0-0.1c-0.1,0-0.2,0-0.2-0.1h0c0.2-0.2,0.4-0.1,0.7-0.2c0.4-0.1,0.6-0.3,1-0.3
				c0.1-0.1,0.1-0.1,0.1-0.2c0.5,0.1,0.6-0.1,0.9-0.3c0.2-0.1,0.4,0,0.6-0.1c0.1-0.1,0.2-0.2,0.4-0.3c0.2,0,0.3,0,0.5,0
				c0,0,0.1-0.1,0.1-0.1c0.1,0,0.1,0,0.2,0c0,0,0-0.1,0-0.1c0.1-0.1,0.1,0.1,0.2,0c0,0,0,0,0-0.1c0.1,0,0.1,0,0.2,0
				c0-0.1,0.1-0.1,0.1-0.2c-0.1,0,0,0-0.1-0.1c0,0,0,0,0,0c0.3,0.3,1.3-0.2,1.6-0.3c0.3-0.1,0.6-0.3,0.9-0.4c0.2,0,0.4,0,0.5,0
				c0.3-0.1,0.7-0.4,1.1-0.5c0.1,0,0.2,0,0.4,0c0.4-0.2,0.7-0.5,1.3-0.6c0,0,0,0,0,0.1H17c-0.1,0.1-0.2,0.1-0.2,0.2c0,0,0,0,0,0
				c0,0,0.1,0,0.1,0c0.1-0.1,0.2,0,0.4,0l0.5-0.2c0.1-0.1,0.1-0.2,0.2-0.3c0.3-0.1,0.7-0.1,0.8-0.4h-0.1c0,0,0,0,0,0
				c0,0,0,0.1-0.1,0.1c-0.6,0-0.9,0.4-1.4,0.4c0,0,0,0,0,0h0c0.1-0.1,0.5-0.4,0.7-0.4c0.2,0,0.2,0.1,0.4,0c-0.1,0-0.1,0-0.1-0.1
				c0.1-0.1,0.3-0.1,0.5-0.2c0.2-0.1,0.5-0.4,0.7-0.5c0,0,0,0,0-0.1c0,0-0.1,0-0.1,0c-0.2,0.1-0.3,0.1-0.5,0.2
				c-0.4,0.2-0.9,0.4-1.3,0.6c0,0.1,0,0.1,0,0.2c-0.1,0-0.2-0.1-0.3,0c-0.1,0-0.3,0.1-0.4,0.2c-0.1,0-0.2,0-0.3,0
				c-0.3,0.1-0.6,0.4-0.9,0.5c-0.1,0-0.1,0-0.2,0c-0.1,0-0.3,0.2-0.4,0.3c-0.3,0.1-0.5,0.1-0.8,0.3c-0.4,0.2-0.7,0.5-1.2,0.6
				c0-0.1,0-0.1,0-0.2c-0.8-0.1-1,0.3-1.7,0.4c0,0,0,0,0-0.1c0.2,0,0.1-0.1,0.2-0.2c0.1-0.1,0.2-0.1,0.3-0.2c0,0,0.2-0.3,0.2-0.3
				c0.1,0,0.1,0,0.2,0c0.2-0.1,0.5-0.3,0.7-0.4c0.1,0,0.1,0,0.2,0c0.2-0.1,0.5-0.3,0.7-0.4c0.2-0.1,0.4-0.1,0.7-0.2
				c0.6-0.2,1.2-0.6,1.8-0.8c0.2-0.1,0.5-0.1,0.7-0.2c0-0.1,0-0.1,0.1-0.2c0.1-0.1,0.3,0,0.4,0c0.1,0,0.2-0.1,0.4-0.2
				c0.1,0,0.2,0,0.3-0.1c0.1-0.1,0.2-0.2,0.4-0.2c0.2-0.1,0.3,0,0.4-0.1c0.1,0,0.2-0.1,0.2-0.2c0.1,0,0.2,0,0.3,0
				c0.1-0.1,0.3-0.2,0.5-0.3c0.1,0,0.3-0.1,0.4-0.1c0.4-0.3,0.9-0.4,1.4-0.6c0.5-0.2,1.1-0.4,1.5-0.7c0.2-0.1,0.4-0.1,0.6-0.2
				c0.2-0.1,0.5-0.3,0.7-0.4c0.2-0.1,0.3-0.1,0.4,0c0.1,0,0.2-0.2,0.3-0.2c0.1,0,0.2,0,0.2,0c0,0,0-0.1,0-0.1
				c0.1-0.1,0.5-0.2,0.7-0.2c0-0.1-0.1,0,0-0.1c0,0,0,0,0-0.1c0.1,0.1,0,0.1,0.1,0.1c0.1-0.1,0.1-0.2,0.3-0.2c0,0.1,0,0.1,0.1,0.1
				c0.1-0.1,0.1-0.2,0.3-0.2c0.1-0.1,0.2,0,0.4,0c0.3-0.1,0.7-0.3,1-0.5c0.1,0,0.2,0,0.3,0c0.3-0.1,0.6-0.4,0.9-0.5
				c0.1,0,0.2,0,0.4,0c0.3-0.1,0.6-0.3,0.8-0.4c0.2-0.1,0.4-0.1,0.5-0.2c0,0,0,0,0-0.1c0.1,0,0.3-0.1,0.4-0.1c0,0,0-0.1,0.1-0.1
				c0.3-0.1,0.7-0.1,1-0.3c0,0,0.1-0.1,0.1-0.1c0.2-0.1,0.5-0.1,0.7-0.2c0.2-0.1,0.4-0.3,0.6-0.4c0.1,0,0.2,0.1,0.3,0
				c0.2,0,0.3-0.2,0.4-0.3c0.4-0.1,0.6-0.2,1-0.3c0,0,0.4-0.1,0.4-0.2c0,0,0-0.1,0.1-0.1c0.2-0.1,0.4,0,0.6-0.1
				c0.1,0,0.2-0.2,0.3-0.2c0.1,0,0.2,0,0.3,0c0.3-0.1,0.6-0.3,0.9-0.4c0.1,0,0.2,0,0.2,0c0.1,0,0.2-0.1,0.2-0.2
				c0.1,0,0.3-0.1,0.4-0.1c0.1-0.1,0.3-0.2,0.5-0.2c0.1,0,0.2,0,0.3,0c0.2-0.1,0.5-0.2,0.7-0.3c0.1-0.1,0.2,0,0.4-0.1
				c0.1,0,0.3-0.2,0.4-0.2c0.2-0.1,0.5-0.1,0.7-0.2c0.3-0.1,0.5-0.3,0.8-0.4c0.2-0.1,0.4-0.1,0.7-0.2c0.7-0.3,1.4-0.5,2.2-0.8
				c0.1-0.1,0.2,0.1,0.3,0c0,0,0.1-0.1,0.2-0.1c0.2-0.1,0.3,0,0.5-0.1c0.3-0.1,0.6-0.3,0.9-0.4c0.1,0,0.2,0,0.3,0
				c0.5-0.2,1-0.4,1.5-0.6c0.1,0,0.2,0,0.3,0c0.3-0.1,0.7-0.2,1-0.3c0,0,0.1-0.1,0.2-0.1c0.1,0,0.3,0,0.5,0c0.4-0.1,0.9-0.3,1.3-0.5
				c0.2-0.1,0.7-0.2,0.9-0.2c0.1,0,0.1,0,0.2,0c0.2,0,0.4-0.2,0.5-0.2c0.4-0.1,0.9-0.2,1.3-0.4c0.4-0.1,0.7-0.1,1-0.2
				c0.1,0,0.3-0.2,0.5-0.3c0.3-0.1,0.4,0,0.5-0.3c-0.1-0.1,0,0,0-0.1c0.1,0,0,0,0.1,0c0,0-0.1,0-0.1,0c-0.1,0-0.1,0-0.1,0.1h0
				c0,0,0,0,0,0.1h0c0,0-0.1,0-0.2,0c-0.1,0.1,0,0.1-0.2,0.2c0-0.1,0-0.1,0-0.2c-0.3,0-0.6,0.1-0.8,0.2c-0.2,0-0.3-0.1-0.4,0
				c0,0-0.1,0.1-0.1,0.1c-0.1,0-0.2,0-0.3,0c-0.2,0.1-0.3,0.2-0.3,0.4c0,0,0,0,0,0c-0.3-0.1-0.3,0-0.6,0.1c0,0,0,0,0-0.1
				c0,0,0,0,0,0c0.1-0.1,0.2-0.1,0.2-0.1c-0.3,0-0.9,0.2-1.2,0.3c0,0,0,0,0,0c0,0,0.1,0,0.2,0c0.1-0.1,0.1-0.1,0.3-0.1c0,0,0,0,0,0
				c0,0,0,0.1-0.1,0.1c-0.2,0-0.4,0.1-0.6,0.1c-0.1,0-0.1-0.1-0.2-0.1c-0.1,0-0.1,0.1-0.2,0.2c-0.1,0-0.2,0-0.3,0
				c0,0-0.1,0.1-0.1,0.1l-0.2,0.1c-0.3,0.1-0.5,0-0.6-0.1c-0.1,0-0.3,0.1-0.3,0.2h0.1c0,0,0.1,0,0.2,0c0,0.1,0,0.1,0,0.1
				c-0.1,0.1-0.6,0.3-0.8,0.3c-0.1,0-0.2,0-0.2,0c0,0-0.1,0.1-0.2,0.1c-0.1,0-0.3-0.1-0.5-0.1c-0.1,0.1-0.1,0.2-0.3,0.2
				c0,0,0,0-0.1,0c0,0,0,0,0,0c0,0,0,0,0,0c-0.1,0.1-0.3,0.3-0.6,0.3c0,0,0-0.1,0-0.1c-0.2,0-0.2,0.1-0.3,0.2
				c-0.2,0-0.2-0.1-0.4-0.1c-0.3,0.1-0.5,0.3-0.7,0.4c-0.1,0-0.2,0-0.2,0c-0.1,0-0.2,0.1-0.2,0.1c0,0,0,0,0,0c0.1,0,0.1,0,0.1,0
				c-0.1,0.1-0.2,0.2-0.4,0.2c0,0-0.1-0.1-0.1-0.1c-0.1,0.1-0.1,0.1-0.3,0.1c0-0.1,0,0-0.1-0.1c0,0-0.1,0.2-0.1,0.2
				c-0.1,0-0.1,0-0.1,0c-0.1,0-0.1,0.1-0.1,0.2c-0.1,0.1-0.3,0-0.4,0.1c-0.1,0-0.2,0.1-0.3,0.2c-0.1,0-0.2,0-0.4,0.1
				c-0.1,0.1-0.2,0.1-0.4,0.2c-0.1-0.1-0.1-0.1-0.2-0.2c-0.1,0.2-0.3,0.1-0.6,0.2c-0.1,0-0.1,0.1-0.2,0.2c-0.3,0.1-0.5,0.1-0.8,0.1
				c-0.1,0-0.2,0.2-0.4,0.3c-0.1,0-0.2,0-0.2,0c-0.2,0-0.4,0.2-0.5,0.2c0,0,0,0,0,0.1h0c-0.3,0.3-0.8,0.2-1.2,0.4
				c-0.1,0-0.3,0.2-0.3,0.2c-0.1-0.1-0.1-0.1-0.3-0.2c-0.2,0.4-1,0.4-1.5,0.6c-0.1,0.1-0.3,0.2-0.5,0.2c-0.1,0-0.2,0-0.2,0
				c0,0,0,0.1-0.1,0.1c-0.1,0-0.5,0.1-0.6,0.1c-0.1,0-0.2,0.2-0.3,0.2c-0.2,0.1-0.4,0.1-0.6,0.1c-0.1,0-0.2,0.1-0.3,0.2
				c-0.1,0-0.1,0-0.2,0c-0.3,0.1-0.6,0.2-0.9,0.4c-0.4,0.2-1,0.4-1.4,0.6c-0.1,0-0.2,0-0.3,0c-0.2,0.1-0.4,0.2-0.6,0.3
				c-0.1,0-0.2,0-0.2,0c-0.4,0.2-0.8,0.5-1.2,0.6c-0.8,0.3-1.4,0.5-2.1,0.9c-0.1,0-0.3,0-0.4,0.1c-0.2,0.1-0.4,0.3-0.7,0.4
				c-0.4,0.2-0.9,0.2-1.3,0.4c-0.3,0.1-0.7,0.3-1,0.5c-0.1,0-0.2,0-0.3,0c-0.2,0.1-0.4,0.2-0.5,0.3c-0.1,0-0.1,0-0.2,0
				c-0.2,0.1-0.4,0.2-0.6,0.3c-0.2,0.1-0.4,0.1-0.5,0.2c-0.1,0-0.1,0.2-0.2,0.2c-0.3,0.1-0.6,0.1-0.9,0.2c-0.4,0.1-0.8,0.4-1.2,0.5
				c-0.1,0-0.2,0-0.3,0c-0.1,0.1-0.3,0.2-0.5,0.3c-0.3,0.1-0.5,0.1-0.9,0.2c-0.2,0.1-0.3,0.2-0.7,0.2c0,0,0,0,0-0.1
				c0.5-0.1,0.9-0.4,1.3-0.6c0.2-0.1,0.4-0.1,0.5-0.2c0,0,0-0.1,0.1-0.1c0.2-0.1,0.4-0.1,0.6-0.2c0.4-0.2,0.9-0.4,1.3-0.6
				c0.1-0.1,0.4,0,0.5-0.1c0,0,0.1-0.1,0.1-0.2c0.2-0.1,0.3,0,0.5-0.1c0.2-0.1,0.4-0.2,0.5-0.3c0.3-0.2,0.8-0.2,1.1-0.5c0,0,0,0,0,0
				c-0.5,0.1-0.9,0.4-1.3,0.6c-0.3,0.2-0.7,0.2-1,0.3c-0.1,0-0.2,0.2-0.3,0.2C22.4,67,22.2,66.9,22,67c-0.1,0-0.3,0.2-0.4,0.3
				c-0.2,0.1-0.4,0.1-0.7,0.2c-0.3,0.1-0.6,0.2-0.8,0.3c-0.1,0.1-0.3,0-0.4,0.1c-0.1,0.1-0.3,0.2-0.4,0.2c0,0,0,0,0,0
				c0.1-0.1,0.1-0.2,0.2-0.2c0.1,0,0.2,0,0.2,0c0.1,0,0.2-0.2,0.3-0.2c0.2-0.1,0.4-0.1,0.6-0.2c0.1-0.1,0.3-0.2,0.5-0.3
				c0.2-0.1,0.2,0.1,0.4,0c0-0.1,0.1-0.1,0.1-0.2c0.1,0,0.2,0,0.3-0.1c0.1-0.1,0.2-0.2,0.3-0.3c0.1-0.1,0.3,0,0.4-0.1
				c0.1-0.1,0.2-0.3,0.3-0.3c0.1-0.1,0.2,0,0.4-0.1c0.1,0,0.2-0.2,0.3-0.2c0.1,0,0.1,0,0.2,0c0.1,0,0.3-0.2,0.4-0.2
				c0.1,0,0.2,0,0.3,0c0.1,0,0.2-0.2,0.3-0.2c0.2-0.1,0.3,0,0.5-0.1c0.1,0,0.2-0.2,0.3-0.2c0.1,0,0.2,0,0.2,0c0.1,0,0.2-0.2,0.3-0.2
				c0.1,0,0.1,0,0.2,0c0,0,0-0.1,0.1-0.1c0.1,0,0.1,0,0.2,0c0.1,0,0.2-0.1,0.2-0.2c0.1-0.1,0.3,0,0.4-0.1c0.1,0,0.1-0.2,0.1-0.2
				c0.1,0,0.2,0,0.3,0c0.1,0,0.2-0.2,0.3-0.2c0.1-0.1,0.1,0,0.2,0c0,0,0.1-0.1,0.1-0.1c0.1,0,0.2,0,0.3,0c0,0,0.1-0.1,0.1-0.2
				c0.1,0,0.2,0,0.3,0.1c0.2,0,0.4-0.3,0.6-0.3c0.1,0,0.2,0,0.3,0c0.1-0.1,0.2-0.3,0.3-0.3c0.3-0.1,0.5,0,0.8-0.1
				c0.2-0.1,0.2-0.2,0.5-0.2c0-0.1,0-0.1,0-0.2c0.2-0.1,0.5-0.2,0.7-0.3c0,0.1,0,0.1,0.2,0.1c0.2-0.2,1-0.5,1.3-0.5
				c0-0.1,0-0.1,0-0.2c0,0,0,0,0.1,0c0,0.1,0.1,0.1,0.1,0.1c0.2-0.1,0.3-0.1,0.4-0.2c0.3-0.1,0.5-0.1,0.8-0.2
				c0.2-0.1,0.4-0.3,0.7-0.2c0.1,0,0.1-0.1,0.2-0.2c0.2-0.1,0.3,0,0.5-0.1c0,0,0.1-0.1,0.1-0.1c0.2-0.1,0.2,0.1,0.3,0
				c0.2-0.1,0.4-0.3,0.7-0.4c0.2-0.1,0.2,0.1,0.4-0.2c0.1,0,0.1,0.1,0.2,0.1c0.1,0,0.2,0,0.2-0.2c0,0,0,0,0-0.1c-0.1,0-0.1,0-0.2,0
				c-0.1,0.1-0.2,0.1-0.2,0.1c0,0,0,0,0-0.1c0.1,0,0.1,0,0.2-0.1c0.1,0,0.2-0.2,0.3-0.2c0,0.2,0.1,0.2,0.1,0.4
				c0.5-0.1,0.7-0.4,1.2-0.5c0,0,0,0,0,0c-0.1,0-0.1,0-0.1-0.1h0c0-0.1,0,0,0.1-0.1c0,0,0-0.1,0-0.1c0.1-0.1,0.6-0.4,0.7-0.4
				c0,0,0,0,0,0.1c-0.1,0.1,0,0-0.1,0.1c0,0,0,0,0,0c0.1,0,0.2-0.1,0.3-0.1c0-0.1,0.1-0.1,0.1-0.2c0.1,0.1,0.1,0.1,0.2,0.1
				c0-0.1,0-0.1,0.1-0.2c0.1,0,0.1,0,0.2,0.1c0.1-0.1,0.1-0.1,0.2-0.2c0,0,0,0,0,0c0.1,0.1,0.1,0.2,0.1,0.3c0.1,0,0.1,0.1,0.2,0.1
				c0.2,0,0.3-0.2,0.5-0.2c0-0.1,0-0.1,0-0.2c-0.1,0-0.1,0-0.2,0c0,0,0,0,0,0c0.4,0,0.4-0.4,0.7-0.5c0,0.1,0,0.2,0.1,0.2
				c0.1-0.1,0.4-0.2,0.4-0.3c-0.1,0,0,0-0.1-0.1c0.2-0.1,0.5-0.3,0.7-0.3c0,0.1,0.1,0.2,0,0.2c-0.1,0.2-0.2,0.1-0.2,0.3c0,0,0,0,0,0
				c0,0,0.1,0,0.2,0c0-0.1,0-0.2,0.1-0.3c0.2,0,0.2-0.1,0.4-0.2c0.1,0,0.1,0.1,0.2,0c0.1-0.1-0.1-0.2,0.2-0.3c0,0.1,0,0,0.1,0.1
				c0,0.2,0.1,0.2,0.1,0.3c-0.2,0-0.2,0-0.4,0.1c0,0.1,0,0.1-0.1,0.2c0.1,0,0.1,0,0.1,0c0.2-0.1,0.6-0.2,0.8-0.2c0,0,0-0.1,0-0.1
				c-0.1,0-0.1-0.1-0.2-0.1c0,0,0-0.1,0-0.1c0.2-0.1,0.3-0.3,0.6-0.4c0,0.1,0.1,0.1,0.2,0.1c0-0.2,0.1-0.2,0.2-0.3
				c0.1,0,0.2,0,0.2,0c0-0.1,0-0.1,0-0.2c0.2,0,0.2,0,0.3-0.1c0,0,0,0,0,0c-0.3,0-0.5,0.1-0.8,0.2c0,0.1,0,0.1-0.1,0.2
				c-0.2-0.2-0.5,0-0.7,0.1c-0.1,0-0.2-0.1-0.3,0c0,0-0.1,0.1-0.1,0.1c-0.1,0-0.2,0-0.2,0c0,0,0,0.1,0,0.1c-0.1,0-0.1,0-0.2-0.1
				c0,0.2-0.1,0.2-0.4,0.2c-0.1,0-0.2,0-0.3,0.1c-0.1,0.1-0.2,0.4-0.4,0.3c-0.1,0-0.1-0.1-0.1-0.2c-0.2,0-0.4,0.1-0.5,0.2
				c-0.1,0.1,0,0.2-0.1,0.2c-0.1,0-0.1,0-0.2,0c0,0,0,0.1,0,0.1c-0.1,0-0.1,0-0.2,0c-0.1,0.1-0.1,0.2-0.3,0.2c0-0.1,0-0.1-0.1-0.2
				c-0.4,0-0.6,0.2-1,0.3c0-0.1,0-0.1,0-0.2c0,0,0.1,0,0.1,0c0.3,0.2,0.3-0.1,0.5-0.1c0.2,0,0.3-0.1,0.5-0.2c0.1,0,0.1,0,0.2,0
				c0.1,0,0.2-0.2,0.3-0.2c0.1,0,0.2,0.1,0.3,0c0.1,0,0.1-0.2,0.1-0.2c0.1,0,0.1,0,0.2,0c0.1-0.1,0.2-0.2,0.4-0.2
				c0,0.1,0,0.1,0.1,0.1c0.2-0.3,0.6-0.3,1-0.3c0.1,0,0.2-0.1,0.2-0.2c0.1,0,0.2,0,0.2,0c0.1,0,0.1-0.1,0.2-0.1c0,0,0-0.1,0-0.1
				c0.1,0,0.3,0,0.5-0.1c0.1,0,0.2-0.2,0.3-0.2c0.1,0,0.3,0,0.4-0.1c0.1,0,0.1-0.1,0.2-0.2c0.1,0,0.2,0.1,0.3,0
				c0.1,0,0.2-0.2,0.3-0.3c0.2-0.1,0.3,0.1,0.5,0c0,0,0-0.1,0-0.1c0.1,0,0.2,0,0.3,0c0.2-0.1,0.5-0.3,0.8-0.4
				c0.1-0.1,0.1-0.1,0.2-0.2c0.1,0,0.4,0,0.6,0c0-0.1,0-0.1,0.1-0.2C49,55,49,55,48.9,55c0.1,0,0.2-0.1,0.3-0.1c0.1,0,0.1,0,0.2,0
				c0.1,0,0.2-0.1,0.2-0.2c0.1,0,0.2,0,0.2,0c0.2-0.1,0.3-0.2,0.6-0.3c0,0.1,0,0,0,0.1c0,0,0,0,0,0.1c-0.2,0.1-0.5,0.1-0.5,0.3
				c0.1,0,0,0,0.1,0c0.3,0,0.5-0.1,0.8-0.1c0-0.1,0.1-0.2,0.2-0.3c0.2,0,0.4,0,0.6-0.1c0,0,0-0.1,0-0.1h-0.1
				c-0.1-0.1-0.4,0.1-0.5,0.1c0,0,0,0,0-0.1c0.2,0,0.5-0.1,0.6-0.2c0.2-0.1,0.1-0.2,0.4-0.2c0,0,0,0.1,0,0.1c0,0,0,0-0.1,0
				c-0.1,0-0.2,0-0.3,0.1c0,0,0,0.1,0,0.1c0.1,0,0.2,0,0.3,0c0.1,0,0.3-0.2,0.3-0.3c0,0-0.1,0-0.1,0h0.1c0.2-0.2,0.1-0.1,0.4-0.2
				c0,0,0.1-0.1,0.2-0.1c0.1,0,0.2,0.1,0.3,0.1c0.1,0,0.3-0.3,0.4-0.3c0,0,0.4-0.1,0.4-0.1c0,0,0,0.1,0.2,0.1c0.2,0,0.2-0.2,0.5-0.2
				c0,0,0,0,0.1,0.1c0,0,0,0.1,0,0.1c-0.3,0.1-0.6,0.1-0.9,0.3c0,0,0-0.2-0.1-0.1c-0.1,0.1-0.2,0.2-0.3,0.3h0.1
				c0.3-0.2,0.8-0.1,1.2-0.3c0.1-0.1,0.3-0.2,0.5-0.2c0.1,0,0.2,0,0.3,0c0.1,0,0.2-0.2,0.4-0.2c0.1,0,0.2,0,0.3,0
				c0.2,0,0.5-0.2,0.6-0.2c0.3-0.1,0.7-0.1,1-0.2c0.3-0.1,0.6-0.3,0.9-0.4c0.4-0.2,1.3-0.1,1.5-0.4c-0.1,0-0.2,0-0.4,0
				c-0.1,0.1-0.4,0.2-0.5,0.1c0,0,0,0,0,0c0.2-0.1,0.5-0.2,0.8-0.3c0.1,0,0.2,0,0.2,0c0,0,0.5-0.1,0.5-0.2c0,0,0.1-0.1,0.1-0.1
				c0.3-0.1,0.5-0.1,0.8-0.1c0.1,0,0.3-0.1,0.4-0.1c0.1-0.1,0.1-0.2,0.3-0.2c0,0,0.1,0,0.2,0.1c0,0,0,0,0-0.1c-0.1,0,0,0-0.1-0.1
				c0.2,0,0.3,0,0.4-0.1c0.2-0.1,0.5,0,0.6,0c0.1,0,0.4-0.2,0.5-0.3c0.2-0.1,0.5,0,0.7-0.1c0,0,0-0.1,0.1-0.1
				c0.2-0.1,0.7-0.1,0.9-0.1c0-0.1,0.1-0.2,0.2-0.2c0,0,1.2-0.2,1.3-0.2c0.1,0,0.1-0.2,0.2-0.1c0,0,0.1,0.1,0.1,0.1
				c0.3,0.1,0.5-0.2,0.7-0.2c0.1,0,0.2,0,0.3,0c0,0,0.1-0.1,0.2-0.1c0,0,0.1,0.1,0.1,0c0.1,0,0.1-0.2,0.2-0.3c0.2,0,0.4,0,0.6,0
				c0,0,0-0.1,0.1-0.1c0.1-0.1,0.4,0,0.5-0.1c0.1,0,0.2-0.1,0.3-0.1c0.1,0,0.2,0,0.4,0c0,0,0.1-0.1,0.2-0.1c0.1,0,0.2,0,0.3,0
				c0.2-0.1,0.5-0.2,0.8-0.3c0.3-0.1,0.3,0.1,0.6,0c0.2,0,0.3-0.2,0.5-0.2c0.1,0,0.2,0,0.3,0c0,0,0.1-0.1,0.2-0.1c0.1,0,0.2,0,0.4,0
				c0.1,0,0.3-0.2,0.4-0.2c0.1,0,0.2,0,0.4,0c0,0,0,0,0,0c-0.1,0.1-0.1,0.1-0.1,0.1c0,0,0.1,0,0.2,0c0.4-0.6,1.4-0.3,2.1-0.7
				c0.2-0.1,0.1-0.3,0.6-0.3c0.2,0.1,0.8-0.2,1-0.3c0.1-0.1,0.5,0,0.7-0.1c0,0,0,0,0,0C79,46.9,79,47,79,47c-0.1,0,0,0-0.1,0
				c0,0,0,0,0,0c0,0,0,0,0,0.1c0,0,0.1,0,0.1,0c0,0,0.6-0.3,0.6-0.3c0.1,0.1,0.1,0.1,0.2,0.1c0.1-0.1,0.2-0.1,0.4-0.1
				c0-0.1,0.1-0.2,0.1-0.3c0.4,0,0.7-0.2,1-0.2c0.1,0,0.2,0,0.3,0c0.2-0.1,0.5-0.3,0.7-0.4c0.1,0,0.2,0,0.3,0c0.1,0,0.1-0.1,0.1-0.1
				c0,0,0.1,0.1,0.1,0c0.1,0,0.2-0.2,0.3-0.2c0.2,0,0.4,0,0.6,0c0.1,0,0.4-0.1,0.5-0.1c0,0,0,0.1,0.1,0.1c0,0,0.5-0.1,0.6-0.1
				c0-0.1,0-0.2,0.1-0.2c0.2-0.1,0.9-0.3,1.2-0.3c0,0.1,0,0.1,0.2,0.1c0.3-0.2,0.4-0.3,0.8-0.2c0-0.1-0.1,0,0-0.1
				c0.1-0.1,0.4-0.1,0.5-0.1c0,0,0.1,0.1,0.1,0.1c0.1-0.1,0.3-0.1,0.5-0.1c0.2-0.1,0.3-0.2,0.5-0.3c0.2,0,0.2,0.1,0.4,0.1
				c0,0,0-0.1,0-0.1c0.2,0,0.4-0.1,0.6-0.2c0.1,0,0.1,0,0.2,0c0,0,0.1-0.1,0.1-0.1c0.1,0,0.2,0,0.3,0c0.1,0,0.3-0.1,0.4-0.2
				c0.2,0,0.3,0,0.5,0c0,0,0.1-0.1,0.1-0.1l0.4,0c0.1,0,0.1,0.1,0.3,0.1c0.2,0,0.2-0.2,0.3-0.2c0.1-0.1,0.3,0,0.5-0.1
				c0.2,0,0.6-0.3,0.9-0.2c0,0.1,0,0.1,0.1,0.1c0.1,0,0.2-0.1,0.3-0.1c0-0.1,0-0.2,0.1-0.2c0,0,0,0,0.1,0l0.1,0.2
				c0.1,0.1,1.1-0.2,1.2-0.2c0-0.1,0.1-0.1,0.1-0.2c0.3,0,0.5,0,0.8-0.1c0.1-0.1,0.1-0.1,0.2-0.2c0.2-0.1,0.4,0.2,0.5,0.1
				c0,0,0-0.1,0.1-0.1c0.2-0.1,0.6,0,0.8-0.1c0.1-0.1,0.2-0.3,0.5-0.3c0.2-0.1,0.6,0.2,0.8,0.1c0.2,0,0.2-0.2,0.4-0.2
				c0-0.1,0-0.1,0-0.1h0.1c0,0.1-0.1,0.1,0.1,0.1c0.1-0.1,0.2,0,0.3-0.1c0.1,0,0.1-0.2,0.2-0.2c0.1,0,0.6,0.1,0.8,0.1l0.4-0.2
				c0.1-0.1,0-0.1,0.2-0.2c0.1,0,0,0.1,0.1,0.1l0.8-0.2c0,0,0-0.1,0-0.1c0.1,0,0.4,0.1,0.5,0c0.3-0.1,0.5-0.3,0.9-0.4
				c0,0,0,0.1,0,0.1c0,0,0,0,0,0c0.3,0.2,1-0.3,1.2-0.2c0-0.1,0.1-0.1,0.2-0.2c0.1,0,0.2,0.1,0.3,0.1c0.3-0.1,0.7-0.1,1.1-0.2
				c0.1,0,0.2-0.2,0.3-0.2c0.1,0,0.1,0,0.2,0c0.2-0.1,0.4-0.1,0.6-0.2c0.3-0.1,0.4,0.1,0.6,0c0.2-0.1,0.2-0.2,0.4-0.2
				c0,0.1,0.1,0.1,0.1,0.1c0,0,1-0.2,1.1-0.2c0.3-0.1,0.7-0.1,1-0.2c0.1,0,0.2-0.2,0.3-0.2c0.1,0,0.1,0.1,0.3,0.1c0.1,0,0.2,0,0.3,0
				c0.1,0,0.1-0.1,0.2-0.1c0.2,0,0.4,0,0.6,0c0.2-0.1,0.3-0.2,0.5-0.3c0.2,0.2,0.6,0,0.8-0.1c0.2,0,0.4,0,0.6-0.1
				c0.9-0.3,2.1-0.4,3.1-0.7c0.4-0.1,0.9,0,1.1-0.2c0.1-0.1,0-0.2,0.3-0.2c0.1,0.1,0.3,0.1,0.4,0c0-0.1,0-0.1,0.1-0.2
				c0.1-0.1,0.4-0.1,0.5-0.2c0,0,0,0,0,0c-0.1,0.1-0.1,0.1-0.2,0.2c0,0,0,0,0,0c0.1,0,0.1,0,0.1,0c0.1,0,0.2,0,0.3,0
				c0.5-0.1,1.1-0.3,1.7-0.4c0.2,0,0.4,0,0.6-0.1c0.1,0,0.1-0.1,0.2-0.1c0.1,0,0.3,0,0.4,0c0.2-0.1,0.6-0.1,0.8-0.2
				c0.1,0,0.3,0,0.5,0c1.1-0.3,2.3-0.4,3.3-0.8c0.2,0,0.4,0,0.6,0c0.1,0,0.2-0.2,0.3-0.2c0.1,0,0.3,0.1,0.4,0c0.1,0,0.3,0,0.5-0.1
				c1-0.3,2.2-0.4,3.1-0.7c0.3,0,0.6,0,0.9-0.1c0.5-0.1,1.1-0.3,1.7-0.4c0.2,0,0.3,0,0.5,0c0.2,0,0.5-0.2,0.7-0.2c0,0,0.1,0,0.2,0
				c0.3-0.1,0.6-0.1,1-0.2c0.1,0,0.3-0.1,0.3-0.1c0,0,0.1-0.1,0.1-0.1c0.1,0,0,0.1,0.2,0.1c0.4-0.1,0.9-0.2,1.3-0.3
				c0.3,0,0.6-0.1,0.9-0.1c0,0,0.1-0.1,0.2-0.1c0,0,0.1,0,0.2,0c0.6-0.1,1.3-0.3,1.8-0.4c0.4-0.1,0.7,0.2,1.2,0
				c0.1,0,0.2-0.1,0.3-0.1c0.2-0.1,0.4,0,0.5-0.1c0.2-0.1,0.5-0.3,0.8-0.3c0.3-0.1,0.3,0.1,0.7,0.1c0.5-0.1,1.1-0.2,1.6-0.4
				c0.4-0.1,0.7,0,1.1-0.1c0.1,0,0.2-0.2,0.3-0.2c0.2-0.1,0.3,0,0.4,0c0.1,0,0.1-0.1,0.3-0.1c0,0,0,0,0,0c0,0,0,0-0.1,0.1h0.1
				c0.1,0.1,0.5,0,0.6-0.1c0.5-0.2,0.8-0.4,1.5-0.4c0,0.1,0,0.1,0,0.1c0.1,0,0.2,0,0.3,0c0.4-0.3,1.2-0.1,1.7-0.3
				c0.1,0,0.2-0.1,0.3-0.1c0.1,0,0.2,0,0.3,0c0.1,0,0.2-0.1,0.3-0.2c0.2,0,0.4,0,0.6,0c0.2-0.1,0.5-0.4,0.7-0.5c0,0,0,0,0,0
				c0.1,0,0,0.1,0.1,0.1c0,0,0,0,0.1,0c0,0,0,0.1,0,0.1c0.5,0,0.5-0.1,0.8-0.2c0,0,0,0,0,0c-0.2,0-0.4,0.1-0.6,0.1c0,0,0,0,0,0h0
				c0.2-0.3,0.4-0.1,0.6-0.1c0,0,0.1-0.1,0.1-0.1c0.2-0.1,0.5-0.1,0.8-0.1c0,0,0,0,0,0c0,0,0,0-0.1,0c-0.1,0.1-0.1,0.1-0.2,0.1h0
				c0.3-0.2,1.1-0.1,1.4-0.2c0-0.1,0-0.1,0.1-0.2c0.1-0.1,0.2-0.1,0.4-0.1c0,0,0,0.1,0,0.1c-0.1,0-0.1,0-0.1,0.2
				c0.4,0,0.6-0.1,0.9-0.2c0.1,0,0.2,0,0.4,0c0.1,0,0.4-0.1,0.6-0.2c0.3-0.1,0.6,0,0.9-0.1c0.1,0,0.1-0.1,0.1-0.2
				c0.1-0.1,0.6-0.1,0.7-0.1c-0.1,0,0,0-0.1,0.1h0.1c0.2,0.1,0.4,0,0.5-0.1c0-0.1,0-0.1,0-0.2c0.4,0,0.9-0.1,1.3-0.2
				c0.1,0,0.2,0,0.4,0c0.6-0.1,1.3-0.1,1.8-0.3c0.2,0,0.4,0,0.5,0c0.2,0,0.6-0.1,0.8-0.1c0.2,0,0.3,0,0.5,0c0.1,0,0.1-0.2,0.3-0.2
				c0,0.1,0,0.1,0,0.1c0.1-0.1,0.1,0,0.2-0.1c-0.1,0-0.1,0-0.1-0.1c0,0,0.1,0,0.2,0c0.2-0.1,0.3,0.2,0.4,0.2c0.5,0,1-0.1,1.5-0.1
				c0.1-0.1,0.1-0.2,0.3-0.2c0,0.1,0,0.1,0,0.2c0.9,0.1,1.4,0.1,2.2-0.1c0.1,0,0.2,0,0.3,0c0.2,0,0.6-0.2,0.9-0.2
				c0.2,0,0.6,0.1,0.9,0.1c0.3,0.1,0.5-0.1,0.8,0c0,0,0.1,0.1,0.1,0.1c0,0,0.2-0.1,0.3-0.1c0.1,0,0.3,0.1,0.4,0.1
				c0.2,0,0.5-0.1,0.8-0.1c0.3,0.1,0.9,0.1,1.1,0.2c0.1,0,0.1,0.1,0.2,0.2c0.3,0.1,0.5-0.1,0.8,0C181.2,29,181.5,29.1,181.8,29.1z"
				/>
		</g>
	</g>
</g>
</svg>
